<svg version="1.1" id="Layer_1" xmlns="http://www.w3.org/2000/svg" xmlns:xlink="http://www.w3.org/1999/xlink" x="0px" y="0px"
	 width="100%" viewBox="0 0 480 520" enable-background="new 0 0 480 520" xml:space="preserve">
<path fill="#010101" opacity="1.000000" stroke="none" 
	d="
M1.000000,50.000000 
	C1.000000,33.739925 1.000000,17.479853 1.000000,1.000000 
	C17.020226,1.000000 33.041454,1.000000 49.820160,1.306386 
	C51.889496,1.741612 53.201340,1.983109 54.513222,1.983284 
	C178.792358,1.999943 303.071503,2.001839 427.350647,1.956299 
	C428.900513,1.955732 430.450226,1.332560 432.000000,1.000001 
	C448.321777,1.000000 464.643524,1.000000 480.958496,1.000002 
	C480.951691,174.333344 480.951691,347.666687 480.951691,521.000000 
	C464.914703,521.000000 448.925995,521.000000 432.185242,520.688965 
	C429.618347,520.253784 427.803497,520.021240 425.988678,520.020996 
	C302.554108,520.003723 179.119553,520.000671 55.685013,520.046326 
	C53.789894,520.047058 51.895004,520.668335 50.000004,521.000000 
	C33.739925,521.000000 17.479853,521.000000 1.000000,521.000000 
	C1.000000,504.979767 1.000000,488.958557 1.341787,472.212769 
	C1.789598,470.172638 1.988355,468.857117 1.988485,467.541565 
	C2.002065,329.897217 2.003970,192.252869 1.958804,54.608540 
	C1.958300,53.072254 1.333416,51.536175 1.000000,50.000000 
M72.765800,133.499939 
	C72.766563,196.641342 72.674637,259.782928 72.803261,322.924072 
	C72.879021,360.117920 101.445358,389.896393 138.420731,390.151031 
	C206.889954,390.622650 275.366943,390.610870 343.836334,390.150055 
	C380.415771,389.903900 409.261536,360.462219 409.400452,323.900055 
	C409.658722,255.928238 409.663757,187.953995 409.398010,119.982246 
	C409.254425,83.257950 380.062500,53.876282 343.301300,53.694729 
	C275.163574,53.358204 207.019089,53.176090 138.885437,53.803013 
	C109.807297,54.070568 89.469612,69.172798 77.554329,95.692924 
	C72.240303,107.520470 72.682198,120.013855 72.765800,133.499939 
M78.356079,430.851624 
	C77.171227,432.359558 75.986374,433.867493 74.557198,435.686401 
	C73.982147,426.373596 71.494934,423.650177 65.690773,426.006500 
	C63.359211,426.953033 61.396107,429.006531 59.526337,430.824677 
	C58.166130,432.147308 57.234341,433.910583 55.837761,435.859467 
	C54.408634,427.690674 51.621552,424.884216 46.041176,425.437286 
	C40.126099,426.023529 35.340588,431.046051 35.324463,436.684753 
	C41.920448,434.783264 43.360703,436.059723 41.753372,442.999023 
	C40.744865,447.353058 38.969379,451.524139 37.821594,455.852539 
	C36.451706,461.018524 38.000896,464.613953 41.731007,465.760864 
	C45.743225,466.994537 50.482616,464.473450 51.846733,459.837311 
	C52.723743,456.856628 52.904419,453.631592 53.097198,450.497620 
	C53.444435,444.852875 56.690262,440.936127 60.475868,437.123840 
	C60.881031,439.202667 60.950089,441.163269 60.492813,442.992279 
	C59.406830,447.335907 57.952396,451.587433 56.867950,455.931396 
	C55.586452,461.064697 57.192055,464.810272 60.851059,465.848083 
	C64.868515,466.987488 69.553810,464.425812 70.931587,459.758209 
	C71.809387,456.784424 71.984062,453.552399 72.118340,450.420898 
	C72.361855,444.742279 75.445351,440.754913 79.433914,437.038818 
	C79.875931,439.247131 79.796738,441.295654 79.561943,443.326233 
	C79.047577,447.774658 78.062981,452.207428 77.988205,456.658600 
	C77.885017,462.802155 81.649284,466.315643 87.153748,465.992157 
	C93.452583,465.621918 98.118874,460.539490 97.573067,455.462921 
	C95.302834,455.462921 92.182167,456.327667 91.168877,455.236115 
	C89.997757,453.974579 90.343468,450.945312 90.629120,448.761932 
	C91.339897,443.329224 92.675217,437.966125 93.155510,432.521759 
	C93.331680,430.524719 92.297539,427.104095 90.947533,426.583466 
	C88.654915,425.699219 85.570381,426.210846 83.020592,426.891876 
	C81.432838,427.315979 80.216354,429.130157 78.356079,430.851624 
M239.197464,424.922913 
	C241.381516,420.465790 244.349548,417.945465 249.364914,421.539459 
	C250.441452,414.115234 247.209442,410.058868 240.781860,409.847931 
	C234.512115,409.642151 229.960129,412.144867 228.290451,418.392029 
	C224.825073,431.357849 221.948593,444.486877 219.090195,457.605530 
	C218.257401,461.427612 219.946381,464.644196 223.934448,465.748718 
	C227.993622,466.872925 231.348572,465.268494 232.921997,461.416260 
	C233.958557,458.878387 234.525055,455.919434 234.408661,453.187103 
	C234.161194,447.376923 236.416885,442.838715 240.477036,439.056427 
	C241.550552,438.056396 243.150879,437.621887 244.509323,436.927704 
	C244.763504,438.295593 245.368851,439.706390 245.207840,441.023529 
	C244.663712,445.475098 243.581497,449.870544 243.197342,454.329865 
	C242.602768,461.231903 245.739487,465.539795 251.190552,465.988434 
	C257.356995,466.495941 262.757263,461.593628 263.168488,455.114990 
	C255.385437,456.813904 254.761948,456.248993 256.078186,447.961212 
	C256.833649,443.204559 258.143433,438.525726 258.720978,433.753448 
	C259.590881,426.565491 255.082260,423.263702 248.615509,426.459045 
	C245.724228,427.887695 243.287491,430.316223 240.817337,432.487610 
	C239.290314,433.829956 238.088745,435.542511 236.741074,437.088867 
	C236.365067,436.878479 235.989059,436.668121 235.613037,436.457733 
	C236.713379,432.854584 237.813705,429.251434 239.197464,424.922913 
M329.164459,433.701019 
	C328.260864,434.735901 327.357300,435.770813 326.074097,437.240540 
	C326.553955,424.734833 331.040558,419.356567 339.385651,420.838104 
	C339.521729,420.225769 339.839325,419.584320 339.768646,418.988953 
	C339.239990,414.535309 337.535797,410.970398 332.595520,410.035187 
	C326.522766,408.885590 320.571564,410.995148 319.006348,416.575165 
	C315.121033,430.426300 311.987488,444.500061 308.957153,458.571655 
	C308.120178,462.458252 310.562012,465.663910 314.675018,465.787598 
	C317.361359,465.868317 320.097504,464.293396 323.497650,463.249390 
	C328.936066,467.056885 332.275787,467.121643 338.902588,462.906799 
	C347.693848,457.315186 352.574493,438.663940 347.633667,429.540863 
	C345.477386,425.559357 342.073517,424.081635 338.038055,426.315430 
	C334.927063,428.037415 332.414001,430.839600 329.164459,433.701019 
M282.348511,464.198303 
	C283.688660,462.970947 285.028809,461.743561 286.372345,460.513062 
	C290.551270,465.807434 293.835907,467.049316 298.669373,465.200714 
	C303.941742,463.184265 306.093597,459.960846 305.604248,454.812836 
	C298.903839,457.166748 297.574951,456.297791 298.955780,449.469147 
	C300.234711,443.144348 302.387970,437.000610 303.934753,430.722595 
	C304.306976,429.211945 303.803314,427.485443 303.702423,425.858215 
	C302.010284,426.121185 300.179657,426.067139 298.662140,426.729919 
	C296.891571,427.503174 295.394562,428.902649 293.878632,429.960754 
	C283.495605,422.410156 274.433411,424.551849 268.877594,435.927368 
	C265.286713,443.279694 265.213501,451.103302 267.879639,458.750763 
	C270.189484,465.376160 275.076202,467.251373 282.348511,464.198303 
M404.897552,445.645905 
	C405.471161,445.308746 406.071838,445.010101 406.614105,444.628448 
	C411.603210,441.117004 414.051727,436.149323 412.851135,432.014893 
	C411.589630,427.670654 407.408020,425.175537 400.835297,424.845123 
	C385.793884,424.089081 374.608795,436.276428 375.998901,451.907074 
	C376.817352,461.110321 383.570831,467.376282 392.105347,466.850830 
	C402.193939,466.229675 409.863556,458.637024 409.691254,449.384003 
	C406.263214,450.953613 402.980621,452.963593 399.414764,453.962952 
	C394.808838,455.253784 392.393311,453.265930 391.223846,448.751831 
	C395.536591,447.827118 399.866577,446.898712 404.897552,445.645905 
M105.722809,434.275208 
	C101.399872,439.468323 100.306412,445.547821 100.900558,452.063507 
	C101.944420,463.510895 112.273369,469.805725 122.919113,465.509796 
	C130.707474,462.366943 135.631683,455.384674 134.347946,449.304352 
	C120.795593,455.953308 117.551323,455.734070 115.985703,447.892059 
	C122.568825,448.608765 128.576492,447.310760 133.702606,442.932129 
	C137.141907,439.994354 138.893066,436.350739 137.719757,431.870300 
	C136.542847,427.376007 132.767868,425.821259 128.689453,425.121063 
	C119.535103,423.549316 111.977699,426.409790 105.722809,434.275208 
M431.630859,441.907013 
	C430.624817,440.378357 429.618774,438.849670 428.612732,437.320984 
	C430.576691,437.267517 432.551819,437.076813 434.498627,437.234650 
	C435.183716,437.290192 435.803741,438.645325 436.446320,438.639343 
	C438.774231,438.617615 441.752655,439.076080 443.266083,437.849060 
	C445.338440,436.168945 447.133057,433.202698 447.403595,430.615845 
	C447.553619,429.181610 444.614227,426.498779 442.625366,425.933319 
	C435.591644,423.933441 428.416412,424.133087 421.753601,427.495453 
	C413.732056,431.543488 413.512573,436.815247 420.904266,441.941467 
	C421.580017,442.410126 422.248871,442.888733 423.025787,443.436676 
	C420.140137,445.599487 416.730011,447.189087 414.822296,449.854187 
	C412.872498,452.578003 410.901886,456.789001 411.700348,459.551208 
	C412.483307,462.259796 416.594543,465.494293 419.503906,465.770386 
	C424.548248,466.249023 430.004272,465.275604 434.889587,463.687073 
	C439.280518,462.259247 442.185333,458.473022 442.234283,453.380981 
	C442.282532,448.356049 438.755280,445.751862 435.054535,443.363525 
	C434.226715,442.829254 433.249329,442.526733 431.630859,441.907013 
M182.550873,439.329987 
	C182.011429,443.405579 180.755051,447.538727 181.076782,451.545135 
	C181.823990,460.849762 190.477615,467.712433 199.407822,466.805267 
	C208.952316,465.835632 215.998352,458.136932 215.374237,448.967499 
	C213.980850,449.793396 212.706909,450.503967 211.477295,451.284424 
	C202.004929,457.296387 195.258713,454.061279 194.341629,442.931610 
	C194.167938,440.823547 194.442139,438.575745 195.010574,436.531738 
	C196.048691,432.798767 197.560196,428.419128 202.070816,428.721710 
	C206.456650,429.015930 206.905731,433.560852 207.545090,437.199036 
	C207.631226,437.689240 207.440277,438.435120 207.708893,438.651733 
	C209.171432,439.830902 210.744690,441.816406 212.267136,441.805145 
	C217.367584,441.767487 219.959930,436.657349 217.521088,432.169769 
	C214.973282,427.481750 210.725632,425.455872 205.683746,424.940552 
	C194.715973,423.819611 187.830856,429.642090 182.550873,439.329987 
M368.465424,456.058289 
	C367.268097,454.206421 364.861664,452.197662 365.078186,450.529297 
	C366.138214,442.360779 367.367828,434.135254 369.577362,426.220154 
	C371.317291,419.987274 373.649628,419.339020 379.873505,420.905914 
	C381.366150,415.289215 378.657867,410.816711 373.262543,409.988373 
	C366.532104,408.955048 361.433472,411.560486 358.774445,418.619080 
	C354.230530,430.681274 352.105530,443.297333 352.744690,456.202484 
	C353.077942,462.931183 356.383667,466.113739 361.620941,466.014740 
	C367.886566,465.896362 372.175598,461.559875 372.434479,454.725006 
	C371.292114,455.164978 370.284637,455.553009 368.465424,456.058289 
M150.299393,425.716003 
	C144.017548,427.969910 141.425034,430.929047 140.735336,436.632599 
	C148.063019,434.887665 149.161682,435.980194 147.211136,443.626709 
	C146.147491,447.796417 144.484436,451.811737 143.384659,455.974121 
	C142.062851,460.976746 143.796051,464.742523 147.557785,465.800079 
	C151.421005,466.886139 155.995926,464.533813 157.407990,460.156189 
	C158.359894,457.205078 157.971191,453.799744 159.035233,450.911865 
	C160.527802,446.860931 162.528748,442.907684 164.958191,439.354279 
	C165.569382,438.460358 168.671860,439.036011 170.571045,439.322937 
	C172.422028,439.602539 175.208893,441.377167 175.825241,440.754242 
	C178.019516,438.536652 180.140076,435.763214 180.947220,432.831024 
	C181.458633,430.973083 180.058807,427.001343 178.687378,426.561462 
	C176.243637,425.777679 172.737274,426.187469 170.462189,427.481598 
	C166.829269,429.547974 163.840164,432.746246 161.176529,434.967529 
	C160.482605,427.386230 158.758774,425.596375 150.299393,425.716003 
z"/>
<path fill="#3C3C3C" opacity="1.000000" stroke="none" 
	d="
M1.000000,50.468658 
	C1.333416,51.536175 1.958300,53.072254 1.958804,54.608540 
	C2.003970,192.252869 2.002065,329.897217 1.988485,467.541565 
	C1.988355,468.857117 1.789598,470.172638 1.341787,471.744080 
	C1.000000,331.645782 1.000000,191.291550 1.000000,50.468658 
z"/>
<path fill="#282828" opacity="1.000000" stroke="none" 
	d="
M50.468662,521.000000 
	C51.895004,520.668335 53.789894,520.047058 55.685013,520.046326 
	C179.119553,520.000671 302.554108,520.003723 425.988678,520.020996 
	C427.803497,520.021240 429.618347,520.253784 431.716583,520.688965 
	C304.979095,521.000000 177.958206,521.000000 50.468662,521.000000 
z"/>
<path fill="#282828" opacity="1.000000" stroke="none" 
	d="
M431.531342,1.000001 
	C430.450226,1.332560 428.900513,1.955732 427.350647,1.956299 
	C303.071503,2.001839 178.792358,1.999943 54.513222,1.983284 
	C53.201340,1.983109 51.889496,1.741612 50.288818,1.306386 
	C177.020889,1.000000 304.041779,1.000000 431.531342,1.000001 
z"/>
<path fill="#EBA8BF" opacity="1.000000" stroke="none" 
	d="
M72.765793,132.999939 
	C72.682198,120.013855 72.240303,107.520470 77.554329,95.692924 
	C89.469612,69.172798 109.807297,54.070568 138.885437,53.803013 
	C207.019089,53.176090 275.163574,53.358204 343.301300,53.694729 
	C380.062500,53.876282 409.254425,83.257950 409.398010,119.982246 
	C409.663757,187.953995 409.658722,255.928238 409.400452,323.900055 
	C409.261536,360.462219 380.415771,389.903900 343.836334,390.150055 
	C275.366943,390.610870 206.889954,390.622650 138.420731,390.151031 
	C101.445358,389.896393 72.879021,360.117920 72.803261,322.924072 
	C72.674637,259.782928 72.766563,196.641342 72.765793,132.999939 
M290.499939,222.786911 
	C301.101074,222.786911 311.702240,222.786911 322.720612,222.786911 
	C322.720612,204.236557 322.720612,186.318192 322.720612,167.845215 
	C340.857178,167.845215 358.573425,167.845215 376.425842,167.845215 
	C376.425842,149.387665 376.425842,131.492493 376.425842,113.563599 
	C357.909119,113.563599 339.710663,113.563599 321.044769,113.563599 
	C321.044769,131.381149 321.044769,148.800797 321.044769,166.592743 
	C302.795654,166.592743 285.015442,166.592743 266.725739,166.592743 
	C266.725739,184.877899 266.725739,202.788467 266.725739,220.916580 
	C249.298874,220.916580 232.387650,220.916580 215.014374,220.916580 
	C215.014374,202.821747 215.014374,184.914062 215.014374,166.382050 
	C196.517746,166.382050 178.471481,166.382050 159.961731,166.382050 
	C159.961731,148.350433 159.961731,130.945190 159.961731,113.393600 
	C141.729462,113.393600 123.978088,113.393600 106.048813,113.393600 
	C106.048813,131.627411 106.048813,149.624847 106.048813,168.142212 
	C123.855072,168.142212 141.241486,168.142212 159.056702,168.142212 
	C159.056702,186.572586 159.056702,204.482834 159.056702,222.843628 
	C177.407532,222.843628 195.323929,222.843628 213.694595,222.843628 
	C213.694595,240.890533 213.694595,258.485992 213.694595,276.226624 
	C232.006500,276.226624 249.852676,276.226624 268.130096,276.226624 
	C268.130096,258.212677 268.130096,240.624939 268.130096,222.786911 
	C275.542633,222.786911 282.521332,222.786911 290.499939,222.786911 
M321.222290,280.718140 
	C321.222290,297.294464 321.222290,313.870758 321.222290,330.370880 
	C340.131439,330.370880 358.317963,330.370880 376.463806,330.370880 
	C376.463806,311.850250 376.463806,293.766754 376.463806,275.517792 
	C357.991425,275.517792 339.805115,275.517792 321.427490,275.517792 
	C321.348206,277.163727 321.285339,278.468658 321.222290,280.718140 
M160.090912,303.500031 
	C160.090912,294.222992 160.090912,284.945953 160.090912,275.488708 
	C141.737961,275.488708 123.868530,275.488708 106.005325,275.488708 
	C106.005325,294.013275 106.005325,312.219604 106.005325,330.556183 
	C124.117691,330.556183 141.850739,330.556183 160.090912,330.556183 
	C160.090912,321.715515 160.090912,313.107788 160.090912,303.500031 
z"/>
<path fill="#E6A4BA" opacity="1.000000" stroke="none" 
	d="
M78.594666,430.586060 
	C80.216354,429.130157 81.432838,427.315979 83.020592,426.891876 
	C85.570381,426.210846 88.654915,425.699219 90.947533,426.583466 
	C92.297539,427.104095 93.331680,430.524719 93.155510,432.521759 
	C92.675217,437.966125 91.339897,443.329224 90.629120,448.761932 
	C90.343468,450.945312 89.997757,453.974579 91.168877,455.236115 
	C92.182167,456.327667 95.302834,455.462921 97.573067,455.462921 
	C98.118874,460.539490 93.452583,465.621918 87.153748,465.992157 
	C81.649284,466.315643 77.885017,462.802155 77.988205,456.658600 
	C78.062981,452.207428 79.047577,447.774658 79.561943,443.326233 
	C79.796738,441.295654 79.875931,439.247131 79.433914,437.038818 
	C75.445351,440.754913 72.361855,444.742279 72.118340,450.420898 
	C71.984062,453.552399 71.809387,456.784424 70.931587,459.758209 
	C69.553810,464.425812 64.868515,466.987488 60.851059,465.848083 
	C57.192055,464.810272 55.586452,461.064697 56.867950,455.931396 
	C57.952396,451.587433 59.406830,447.335907 60.492813,442.992279 
	C60.950089,441.163269 60.881031,439.202667 60.475868,437.123840 
	C56.690262,440.936127 53.444435,444.852875 53.097198,450.497620 
	C52.904419,453.631592 52.723743,456.856628 51.846733,459.837311 
	C50.482616,464.473450 45.743225,466.994537 41.731007,465.760864 
	C38.000896,464.613953 36.451706,461.018524 37.821594,455.852539 
	C38.969379,451.524139 40.744865,447.353058 41.753372,442.999023 
	C43.360703,436.059723 41.920448,434.783264 35.324463,436.684753 
	C35.340588,431.046051 40.126099,426.023529 46.041176,425.437286 
	C51.621552,424.884216 54.408634,427.690674 55.837761,435.859467 
	C57.234341,433.910583 58.166130,432.147308 59.526337,430.824677 
	C61.396107,429.006531 63.359211,426.953033 65.690773,426.006500 
	C71.494934,423.650177 73.982147,426.373596 74.557198,435.686401 
	C75.986374,433.867493 77.171227,432.359558 78.594666,430.586060 
z"/>
<path fill="#E5A4BA" opacity="1.000000" stroke="none" 
	d="
M239.055756,425.285583 
	C237.813705,429.251434 236.713379,432.854584 235.613037,436.457733 
	C235.989059,436.668121 236.365067,436.878479 236.741074,437.088867 
	C238.088745,435.542511 239.290314,433.829956 240.817337,432.487610 
	C243.287491,430.316223 245.724228,427.887695 248.615509,426.459045 
	C255.082260,423.263702 259.590881,426.565491 258.720978,433.753448 
	C258.143433,438.525726 256.833649,443.204559 256.078186,447.961212 
	C254.761948,456.248993 255.385437,456.813904 263.168488,455.114990 
	C262.757263,461.593628 257.356995,466.495941 251.190552,465.988434 
	C245.739487,465.539795 242.602768,461.231903 243.197342,454.329865 
	C243.581497,449.870544 244.663712,445.475098 245.207840,441.023529 
	C245.368851,439.706390 244.763504,438.295593 244.509323,436.927704 
	C243.150879,437.621887 241.550552,438.056396 240.477036,439.056427 
	C236.416885,442.838715 234.161194,447.376923 234.408661,453.187103 
	C234.525055,455.919434 233.958557,458.878387 232.921997,461.416260 
	C231.348572,465.268494 227.993622,466.872925 223.934448,465.748718 
	C219.946381,464.644196 218.257401,461.427612 219.090195,457.605530 
	C221.948593,444.486877 224.825073,431.357849 228.290451,418.392029 
	C229.960129,412.144867 234.512115,409.642151 240.781860,409.847931 
	C247.209442,410.058868 250.441452,414.115234 249.364914,421.539459 
	C244.349548,417.945465 241.381516,420.465790 239.055756,425.285583 
z"/>
<path fill="#E6A4BA" opacity="1.000000" stroke="none" 
	d="
M329.399780,433.431274 
	C332.414001,430.839600 334.927063,428.037415 338.038055,426.315430 
	C342.073517,424.081635 345.477386,425.559357 347.633667,429.540863 
	C352.574493,438.663940 347.693848,457.315186 338.902588,462.906799 
	C332.275787,467.121643 328.936066,467.056885 323.497650,463.249390 
	C320.097504,464.293396 317.361359,465.868317 314.675018,465.787598 
	C310.562012,465.663910 308.120178,462.458252 308.957153,458.571655 
	C311.987488,444.500061 315.121033,430.426300 319.006348,416.575165 
	C320.571564,410.995148 326.522766,408.885590 332.595520,410.035187 
	C337.535797,410.970398 339.239990,414.535309 339.768646,418.988953 
	C339.839325,419.584320 339.521729,420.225769 339.385651,420.838104 
	C331.040558,419.356567 326.553955,424.734833 326.074097,437.240540 
	C327.357300,435.770813 328.260864,434.735901 329.399780,433.431274 
M330.237549,458.101044 
	C335.671051,453.330902 337.437103,447.106354 337.129547,440.169189 
	C337.070038,438.826233 336.495209,436.777802 335.591980,436.396790 
	C334.605408,435.980591 332.681244,436.786591 331.650879,437.643311 
	C326.540649,441.892517 323.788666,447.122375 324.022675,454.124146 
	C324.171295,458.571899 325.355103,460.008331 330.237549,458.101044 
z"/>
<path fill="#E4A3B9" opacity="1.000000" stroke="none" 
	d="
M282.058868,464.433899 
	C275.076202,467.251373 270.189484,465.376160 267.879639,458.750763 
	C265.213501,451.103302 265.286713,443.279694 268.877594,435.927368 
	C274.433411,424.551849 283.495605,422.410156 293.878632,429.960754 
	C295.394562,428.902649 296.891571,427.503174 298.662140,426.729919 
	C300.179657,426.067139 302.010284,426.121185 303.702423,425.858215 
	C303.803314,427.485443 304.306976,429.211945 303.934753,430.722595 
	C302.387970,437.000610 300.234711,443.144348 298.955780,449.469147 
	C297.574951,456.297791 298.903839,457.166748 305.604248,454.812836 
	C306.093597,459.960846 303.941742,463.184265 298.669373,465.200714 
	C293.835907,467.049316 290.551270,465.807434 286.372345,460.513062 
	C285.028809,461.743561 283.688660,462.970947 282.058868,464.433899 
M279.675812,439.464630 
	C279.276184,443.876434 278.597443,448.289856 278.622375,452.699249 
	C278.631561,454.328949 280.296509,455.949280 281.206268,457.573883 
	C282.840515,456.182159 285.309998,455.095612 285.951111,453.341003 
	C287.810364,448.252594 289.085083,442.928986 290.256592,437.624237 
	C290.601044,436.064667 290.093048,432.916077 289.534973,432.809784 
	C287.527924,432.427460 284.947205,432.419617 283.317169,433.441284 
	C281.706696,434.450714 280.985138,436.878326 279.675812,439.464630 
z"/>
<path fill="#E4A3B9" opacity="1.000000" stroke="none" 
	d="
M404.547058,445.808105 
	C399.866577,446.898712 395.536591,447.827118 391.223846,448.751831 
	C392.393311,453.265930 394.808838,455.253784 399.414764,453.962952 
	C402.980621,452.963593 406.263214,450.953613 409.691254,449.384003 
	C409.863556,458.637024 402.193939,466.229675 392.105347,466.850830 
	C383.570831,467.376282 376.817352,461.110321 375.998901,451.907074 
	C374.608795,436.276428 385.793884,424.089081 400.835297,424.845123 
	C407.408020,425.175537 411.589630,427.670654 412.851135,432.014893 
	C414.051727,436.149323 411.603210,441.117004 406.614105,444.628448 
	C406.071838,445.010101 405.471161,445.308746 404.547058,445.808105 
M401.198090,434.572235 
	C400.845490,432.662354 400.492920,430.752441 400.140320,428.842560 
	C398.166138,429.260406 395.696625,429.073914 394.310852,430.209717 
	C390.194397,433.583435 389.053986,438.224030 389.906982,443.756470 
	C395.924530,443.394135 398.614075,439.546906 401.198090,434.572235 
z"/>
<path fill="#E4A3B9" opacity="1.000000" stroke="none" 
	d="
M105.933212,433.982422 
	C111.977699,426.409790 119.535103,423.549316 128.689453,425.121063 
	C132.767868,425.821259 136.542847,427.376007 137.719757,431.870300 
	C138.893066,436.350739 137.141907,439.994354 133.702606,442.932129 
	C128.576492,447.310760 122.568825,448.608765 115.985703,447.892059 
	C117.551323,455.734070 120.795593,455.953308 134.347946,449.304352 
	C135.631683,455.384674 130.707474,462.366943 122.919113,465.509796 
	C112.273369,469.805725 101.944420,463.510895 100.900558,452.063507 
	C100.306412,445.547821 101.399872,439.468323 105.933212,433.982422 
M119.217972,442.820038 
	C121.507645,440.080933 124.139946,437.543304 125.924927,434.507477 
	C126.680008,433.223297 125.653038,430.891296 125.436058,429.035583 
	C123.429794,429.296082 120.479988,428.825958 119.601814,429.960022 
	C117.356606,432.859467 115.617661,436.335754 114.459969,439.840271 
	C113.309586,443.322571 115.220558,444.425537 119.217972,442.820038 
z"/>
<path fill="#E6A4BB" opacity="1.000000" stroke="none" 
	d="
M431.985840,442.012268 
	C433.249329,442.526733 434.226715,442.829254 435.054535,443.363525 
	C438.755280,445.751862 442.282532,448.356049 442.234283,453.380981 
	C442.185333,458.473022 439.280518,462.259247 434.889587,463.687073 
	C430.004272,465.275604 424.548248,466.249023 419.503906,465.770386 
	C416.594543,465.494293 412.483307,462.259796 411.700348,459.551208 
	C410.901886,456.789001 412.872498,452.578003 414.822296,449.854187 
	C416.730011,447.189087 420.140137,445.599487 423.025787,443.436676 
	C422.248871,442.888733 421.580017,442.410126 420.904266,441.941467 
	C413.512573,436.815247 413.732056,431.543488 421.753601,427.495453 
	C428.416412,424.133087 435.591644,423.933441 442.625366,425.933319 
	C444.614227,426.498779 447.553619,429.181610 447.403595,430.615845 
	C447.133057,433.202698 445.338440,436.168945 443.266083,437.849060 
	C441.752655,439.076080 438.774231,438.617615 436.446320,438.639343 
	C435.803741,438.645325 435.183716,437.290192 434.498627,437.234650 
	C432.551819,437.076813 430.576691,437.267517 428.612732,437.320984 
	C429.618774,438.849670 430.624817,440.378357 431.985840,442.012268 
M425.390076,453.739777 
	C426.659790,453.405121 428.201202,453.406555 429.132751,452.653564 
	C430.388794,451.638214 431.175293,450.042084 432.163300,448.695221 
	C430.898376,447.797241 429.086975,445.859650 428.465729,446.186218 
	C426.122620,447.417847 424.166504,449.385773 422.065491,451.078003 
	C422.915283,451.981476 423.765045,452.884949 425.390076,453.739777 
z"/>
<path fill="#E4A3B9" opacity="1.000000" stroke="none" 
	d="
M182.713867,438.974609 
	C187.830856,429.642090 194.715973,423.819611 205.683746,424.940552 
	C210.725632,425.455872 214.973282,427.481750 217.521088,432.169769 
	C219.959930,436.657349 217.367584,441.767487 212.267136,441.805145 
	C210.744690,441.816406 209.171432,439.830902 207.708893,438.651733 
	C207.440277,438.435120 207.631226,437.689240 207.545090,437.199036 
	C206.905731,433.560852 206.456650,429.015930 202.070816,428.721710 
	C197.560196,428.419128 196.048691,432.798767 195.010574,436.531738 
	C194.442139,438.575745 194.167938,440.823547 194.341629,442.931610 
	C195.258713,454.061279 202.004929,457.296387 211.477295,451.284424 
	C212.706909,450.503967 213.980850,449.793396 215.374237,448.967499 
	C215.998352,458.136932 208.952316,465.835632 199.407822,466.805267 
	C190.477615,467.712433 181.823990,460.849762 181.076782,451.545135 
	C180.755051,447.538727 182.011429,443.405579 182.713867,438.974609 
z"/>
<path fill="#E5A4BA" opacity="1.000000" stroke="none" 
	d="
M368.871307,455.999634 
	C370.284637,455.553009 371.292114,455.164978 372.434479,454.725006 
	C372.175598,461.559875 367.886566,465.896362 361.620941,466.014740 
	C356.383667,466.113739 353.077942,462.931183 352.744690,456.202484 
	C352.105530,443.297333 354.230530,430.681274 358.774445,418.619080 
	C361.433472,411.560486 366.532104,408.955048 373.262543,409.988373 
	C378.657867,410.816711 381.366150,415.289215 379.873505,420.905914 
	C373.649628,419.339020 371.317291,419.987274 369.577362,426.220154 
	C367.367828,434.135254 366.138214,442.360779 365.078186,450.529297 
	C364.861664,452.197662 367.268097,454.206421 368.871307,455.999634 
z"/>
<path fill="#E6A4BA" opacity="1.000000" stroke="none" 
	d="
M150.666916,425.617798 
	C158.758774,425.596375 160.482605,427.386230 161.176529,434.967529 
	C163.840164,432.746246 166.829269,429.547974 170.462189,427.481598 
	C172.737274,426.187469 176.243637,425.777679 178.687378,426.561462 
	C180.058807,427.001343 181.458633,430.973083 180.947220,432.831024 
	C180.140076,435.763214 178.019516,438.536652 175.825241,440.754242 
	C175.208893,441.377167 172.422028,439.602539 170.571045,439.322937 
	C168.671860,439.036011 165.569382,438.460358 164.958191,439.354279 
	C162.528748,442.907684 160.527802,446.860931 159.035233,450.911865 
	C157.971191,453.799744 158.359894,457.205078 157.407990,460.156189 
	C155.995926,464.533813 151.421005,466.886139 147.557785,465.800079 
	C143.796051,464.742523 142.062851,460.976746 143.384659,455.974121 
	C144.484436,451.811737 146.147491,447.796417 147.211136,443.626709 
	C149.161682,435.980194 148.063019,434.887665 140.735336,436.632599 
	C141.425034,430.929047 144.017548,427.969910 150.666916,425.617798 
z"/>
<path fill="#030202" opacity="1.000000" stroke="none" 
	d="
M289.999969,222.786911 
	C282.521332,222.786911 275.542633,222.786911 268.130096,222.786911 
	C268.130096,240.624939 268.130096,258.212677 268.130096,276.226624 
	C249.852676,276.226624 232.006500,276.226624 213.694595,276.226624 
	C213.694595,258.485992 213.694595,240.890533 213.694595,222.843628 
	C195.323929,222.843628 177.407532,222.843628 159.056702,222.843628 
	C159.056702,204.482834 159.056702,186.572586 159.056702,168.142212 
	C141.241486,168.142212 123.855072,168.142212 106.048813,168.142212 
	C106.048813,149.624847 106.048813,131.627411 106.048813,113.393600 
	C123.978088,113.393600 141.729462,113.393600 159.961731,113.393600 
	C159.961731,130.945190 159.961731,148.350433 159.961731,166.382050 
	C178.471481,166.382050 196.517746,166.382050 215.014374,166.382050 
	C215.014374,184.914062 215.014374,202.821747 215.014374,220.916580 
	C232.387650,220.916580 249.298874,220.916580 266.725739,220.916580 
	C266.725739,202.788467 266.725739,184.877899 266.725739,166.592743 
	C285.015442,166.592743 302.795654,166.592743 321.044769,166.592743 
	C321.044769,148.800797 321.044769,131.381149 321.044769,113.563599 
	C339.710663,113.563599 357.909119,113.563599 376.425842,113.563599 
	C376.425842,131.492493 376.425842,149.387665 376.425842,167.845215 
	C358.573425,167.845215 340.857178,167.845215 322.720612,167.845215 
	C322.720612,186.318192 322.720612,204.236557 322.720612,222.786911 
	C311.702240,222.786911 301.101074,222.786911 289.999969,222.786911 
z"/>
<path fill="#050404" opacity="1.000000" stroke="none" 
	d="
M321.222382,280.245850 
	C321.285339,278.468658 321.348206,277.163727 321.427490,275.517792 
	C339.805115,275.517792 357.991425,275.517792 376.463806,275.517792 
	C376.463806,293.766754 376.463806,311.850250 376.463806,330.370880 
	C358.317963,330.370880 340.131439,330.370880 321.222290,330.370880 
	C321.222290,313.870758 321.222290,297.294464 321.222382,280.245850 
z"/>
<path fill="#020202" opacity="1.000000" stroke="none" 
	d="
M160.090912,304.000061 
	C160.090912,313.107788 160.090912,321.715515 160.090912,330.556183 
	C141.850739,330.556183 124.117691,330.556183 106.005325,330.556183 
	C106.005325,312.219604 106.005325,294.013275 106.005325,275.488708 
	C123.868530,275.488708 141.737961,275.488708 160.090912,275.488708 
	C160.090912,284.945953 160.090912,294.222992 160.090912,304.000061 
z"/>
<path fill="#0A0708" opacity="1.000000" stroke="none" 
	d="
M329.901001,458.303040 
	C325.355103,460.008331 324.171295,458.571899 324.022675,454.124146 
	C323.788666,447.122375 326.540649,441.892517 331.650879,437.643311 
	C332.681244,436.786591 334.605408,435.980591 335.591980,436.396790 
	C336.495209,436.777802 337.070038,438.826233 337.129547,440.169189 
	C337.437103,447.106354 335.671051,453.330902 329.901001,458.303040 
z"/>
<path fill="#0A0708" opacity="1.000000" stroke="none" 
	d="
M279.774719,439.074219 
	C280.985138,436.878326 281.706696,434.450714 283.317169,433.441284 
	C284.947205,432.419617 287.527924,432.427460 289.534973,432.809784 
	C290.093048,432.916077 290.601044,436.064667 290.256592,437.624237 
	C289.085083,442.928986 287.810364,448.252594 285.951111,453.341003 
	C285.309998,455.095612 282.840515,456.182159 281.206268,457.573883 
	C280.296509,455.949280 278.631561,454.328949 278.622375,452.699249 
	C278.597443,448.289856 279.276184,443.876434 279.774719,439.074219 
z"/>
<path fill="#0C0809" opacity="1.000000" stroke="none" 
	d="
M401.092834,434.928589 
	C398.614075,439.546906 395.924530,443.394135 389.906982,443.756470 
	C389.053986,438.224030 390.194397,433.583435 394.310852,430.209717 
	C395.696625,429.073914 398.166138,429.260406 400.140320,428.842560 
	C400.492920,430.752441 400.845490,432.662354 401.092834,434.928589 
z"/>
<path fill="#0E090A" opacity="1.000000" stroke="none" 
	d="
M118.871689,442.944885 
	C115.220558,444.425537 113.309586,443.322571 114.459969,439.840271 
	C115.617661,436.335754 117.356606,432.859467 119.601814,429.960022 
	C120.479988,428.825958 123.429794,429.296082 125.436058,429.035583 
	C125.653038,430.891296 126.680008,433.223297 125.924927,434.507477 
	C124.139946,437.543304 121.507645,440.080933 118.871689,442.944885 
z"/>
<path fill="#140D0F" opacity="1.000000" stroke="none" 
	d="
M425.002441,453.764099 
	C423.765045,452.884949 422.915283,451.981476 422.065491,451.078003 
	C424.166504,449.385773 426.122620,447.417847 428.465729,446.186218 
	C429.086975,445.859650 430.898376,447.797241 432.163300,448.695221 
	C431.175293,450.042084 430.388794,451.638214 429.132751,452.653564 
	C428.201202,453.406555 426.659790,453.405121 425.002441,453.764099 
z"/>
</svg>