<svg version="1.1" id="Layer_1" xmlns="http://www.w3.org/2000/svg" xmlns:xlink="http://www.w3.org/1999/xlink" x="0px" y="0px"
	 width="100%" viewBox="0 0 1477 1600" enable-background="new 0 0 1477 1600" xml:space="preserve">
<path fill="#010000" opacity="1.000000" stroke="none" 
	d="
M156.000000,1.000000 
	C156.750000,1.000000 157.500000,1.000000 158.793823,1.372863 
	C161.323288,1.829811 163.308914,1.987514 165.294556,1.987576 
	C548.591370,1.999658 931.888123,2.000869 1315.184937,1.993741 
	C1317.173584,1.993704 1319.162109,1.870600 1321.596924,1.809768 
	C1325.850220,2.134114 1329.672363,2.331290 1333.462524,2.791327 
	C1405.087280,11.484987 1462.261353,65.478760 1475.333374,136.709702 
	C1476.148926,141.153275 1477.107910,145.570496 1478.000000,150.000000 
	C1478.000000,583.366028 1478.000000,1016.732117 1477.659424,1450.772705 
	C1476.548218,1456.706177 1475.935059,1461.993530 1474.983398,1467.219360 
	C1461.621948,1540.593750 1396.247437,1597.471191 1321.713989,1600.107910 
	C934.280273,1599.994629 547.301880,1599.997437 160.323486,1600.008423 
	C159.167404,1600.008423 158.011307,1600.124512 156.416870,1600.181641 
	C127.097885,1598.468628 100.334663,1589.968384 76.407906,1573.758423 
	C29.561182,1542.020630 4.738083,1497.631470 1.896174,1440.621094 
	C1.991531,1014.755554 1.996330,589.337830 1.993661,163.920151 
	C1.993655,162.925598 1.883504,161.931061 1.893896,160.493317 
	C2.583878,153.593369 2.925966,147.095612 3.868470,140.686157 
	C14.091100,71.167381 69.689529,14.977515 139.174149,3.806911 
	C144.788086,2.904394 150.391632,1.937162 156.000000,1.000000 
M999.933289,1345.925537 
	C999.933289,1345.925537 999.844482,1345.822632 999.413086,1345.036011 
	C1000.628601,1338.325806 1001.427002,1331.506226 1003.152771,1324.929932 
	C1006.114441,1313.643921 1009.546387,1302.407593 1018.208496,1293.887939 
	C1023.914673,1288.275635 1029.604370,1287.983276 1036.246460,1292.433838 
	C1040.428467,1295.236328 1042.958618,1294.270020 1043.120239,1289.433228 
	C1043.543335,1276.763916 1037.511841,1262.430176 1020.612000,1258.976807 
	C1004.002502,1255.582642 988.508362,1263.239990 979.254089,1279.285767 
	C971.624512,1292.514404 968.359253,1307.164551 966.010193,1321.979858 
	C961.891052,1347.958252 958.060669,1373.963135 949.769409,1399.068237 
	C948.594482,1402.625977 948.297668,1406.600708 948.273621,1410.386597 
	C948.213989,1419.769287 953.546814,1428.002808 960.966492,1430.701782 
	C970.478394,1434.161865 981.120239,1431.485474 987.336426,1424.048218 
	C988.438843,1422.729248 989.470642,1421.351440 990.552612,1419.978760 
	C1002.634460,1432.822632 1014.499207,1435.302002 1030.480103,1428.369141 
	C1039.515503,1424.449097 1046.916138,1418.324463 1053.182129,1410.791138 
	C1066.306885,1395.011597 1071.420410,1376.286621 1072.971313,1356.323120 
	C1073.932007,1343.956787 1073.850708,1331.666870 1068.125000,1320.171875 
	C1062.094238,1308.064697 1051.248901,1303.575073 1039.009033,1309.435303 
	C1031.928833,1312.825073 1025.087769,1317.494019 1019.464844,1322.952881 
	C1012.285278,1329.922974 1006.443665,1338.271362 999.933289,1345.925537 
M221.813171,452.499969 
	C221.814667,632.661316 221.668320,812.822937 222.069931,992.983459 
	C222.106003,1009.163086 224.085480,1025.721680 227.884521,1041.446655 
	C250.335297,1134.374268 333.445862,1199.097290 429.167999,1199.101440 
	C635.994995,1199.110596 842.822021,1199.161987 1049.649048,1199.066650 
	C1110.361572,1199.038696 1161.794556,1176.752808 1203.066040,1132.328491 
	C1239.285522,1093.342285 1257.810913,1046.697754 1257.872925,993.452271 
	C1258.114380,786.125610 1257.977051,578.798401 1257.943359,371.471436 
	C1257.942383,365.481506 1257.717407,359.477173 1257.270752,353.503937 
	C1249.252075,246.261154 1159.276001,162.701447 1051.822754,162.695587 
	C844.329102,162.684250 636.835449,162.720673 429.341858,162.647369 
	C411.736542,162.641144 394.479584,164.799347 377.424072,168.993256 
	C289.468201,190.621414 224.076553,271.575592 222.051346,362.007568 
	C221.383591,391.825165 221.859955,421.668427 221.813171,452.499969 
M239.063065,1413.295532 
	C242.052567,1423.739380 248.542328,1430.317993 259.602081,1431.746948 
	C280.289093,1434.419678 296.071503,1418.811157 299.697876,1401.261353 
	C300.025116,1399.677734 299.318787,1397.880493 299.068024,1395.998779 
	C294.522949,1397.965576 290.713409,1400.096802 286.628906,1401.274414 
	C279.573212,1403.308716 275.241821,1399.843140 275.068268,1392.531128 
	C275.024963,1390.707520 275.088837,1388.846558 275.402313,1387.055176 
	C277.439789,1375.411377 279.812073,1363.820068 281.574890,1352.136230 
	C283.058350,1342.304321 284.546600,1332.385620 284.770782,1322.476807 
	C284.979065,1313.269409 279.856445,1308.674927 270.681885,1307.420654 
	C262.978760,1306.367676 256.218140,1308.484619 250.070068,1313.101074 
	C241.246933,1319.725952 234.847961,1328.401367 229.027206,1337.592163 
	C228.291107,1338.754395 227.445770,1339.847412 226.624161,1341.010620 
	C226.624161,1333.835693 227.015167,1327.024048 226.513855,1320.278809 
	C226.015686,1313.575806 221.936310,1309.500732 215.276093,1307.969971 
	C206.392227,1305.928345 197.842484,1307.147095 191.440247,1313.461182 
	C183.922714,1320.875122 177.574829,1329.477173 170.750046,1337.589355 
	C169.886551,1338.615723 169.206924,1339.796753 167.961319,1341.603638 
	C167.961319,1337.589355 168.011841,1334.605591 167.952759,1331.623779 
	C167.667511,1317.227905 158.610931,1307.739990 144.278900,1307.250122 
	C127.314026,1306.670532 116.155426,1315.783691 108.245911,1329.767578 
	C106.709518,1332.484009 105.700905,1335.559326 104.870087,1338.584839 
	C104.537949,1339.794312 105.345688,1341.316772 105.634544,1342.696777 
	C106.856972,1342.397827 108.157013,1342.271851 109.286179,1341.765137 
	C111.859543,1340.610229 114.255234,1339.008911 116.892044,1338.056396 
	C122.632309,1335.983032 126.469421,1338.086426 127.439377,1344.139648 
	C127.982819,1347.531128 128.162704,1351.258423 127.337486,1354.540527 
	C124.668037,1365.157959 121.233475,1375.582153 118.525681,1386.191040 
	C116.316200,1394.847412 113.599640,1403.602173 113.131859,1412.420654 
	C112.470665,1424.885376 121.323357,1432.542603 133.793579,1432.062988 
	C145.334381,1431.619385 153.169571,1425.300659 156.626602,1414.898438 
	C159.311722,1406.818970 160.018250,1398.043579 161.219589,1389.523071 
	C162.006836,1383.939575 160.550842,1377.505127 162.839630,1372.778687 
	C167.658859,1362.826904 174.209442,1353.702026 180.252197,1344.368774 
	C181.004822,1343.206299 182.986191,1342.839355 184.398254,1342.103882 
	C185.003250,1343.718750 186.022964,1345.309448 186.118484,1346.953857 
	C186.271515,1349.587891 186.191635,1352.354126 185.544235,1354.894775 
	C183.043961,1364.706421 180.194641,1374.428711 177.639191,1384.227051 
	C175.300018,1393.196167 171.845963,1402.134277 171.254532,1411.240112 
	C170.309326,1425.792480 181.409378,1434.359985 195.787308,1431.683350 
	C207.869858,1429.433960 214.143661,1420.815063 216.674622,1409.961914 
	C218.882309,1400.494995 218.988342,1390.541992 220.094650,1380.812012 
	C220.467468,1377.532837 220.247726,1373.848755 221.705811,1371.094604 
	C225.979858,1363.020752 230.737854,1355.172729 235.799866,1347.564575 
	C237.351715,1345.232300 240.496292,1343.959473 242.911575,1342.201538 
	C243.375137,1345.038940 244.553192,1347.974854 244.177719,1350.696533 
	C242.608734,1362.070312 239.981949,1373.323608 238.895370,1384.730713 
	C238.021271,1393.906860 238.803879,1403.240967 239.063065,1413.295532 
M692.978882,1305.486328 
	C691.661499,1311.835327 690.011169,1318.136108 689.085571,1324.541748 
	C685.536255,1349.105225 681.830017,1373.607788 673.771179,1397.233765 
	C672.506348,1400.941895 672.122803,1405.086060 672.050293,1409.041870 
	C671.739624,1425.991577 683.547668,1435.251221 700.027649,1431.276855 
	C705.325073,1429.999268 709.279602,1427.061646 712.312439,1422.538208 
	C718.468384,1413.356567 720.265747,1402.933472 719.298157,1392.430054 
	C717.725037,1375.351685 724.458435,1362.068359 735.891113,1350.442261 
	C738.795227,1347.489014 741.852234,1344.574951 745.254089,1342.250244 
	C749.491089,1339.354980 752.637451,1340.929077 753.394104,1345.961060 
	C753.686829,1347.907959 753.674927,1349.970093 753.393616,1351.920898 
	C752.490295,1358.184082 751.126404,1364.390015 750.433472,1370.672485 
	C749.106934,1382.697510 746.976257,1394.787842 747.271240,1406.799805 
	C747.673035,1423.166626 758.892883,1432.625122 774.659668,1432.071777 
	C790.530823,1431.514893 806.333435,1417.535400 808.669250,1401.835449 
	C808.938843,1400.023560 808.435242,1398.096558 808.230835,1395.458130 
	C805.239380,1397.130493 803.155945,1398.468018 800.931335,1399.501953 
	C796.628662,1401.501587 792.090332,1403.338501 787.667114,1400.201294 
	C783.490356,1397.238525 783.970276,1392.567383 784.665039,1388.302246 
	C786.750671,1375.498535 789.341736,1362.774292 791.266663,1349.948486 
	C792.621033,1340.924805 793.862122,1331.793335 793.963196,1322.696899 
	C794.070923,1312.993164 788.832397,1308.283569 779.160950,1307.241089 
	C770.763000,1306.335815 763.390808,1309.030762 756.493652,1313.446899 
	C743.791077,1321.580078 733.685364,1332.277466 725.583801,1344.937866 
	C724.941284,1345.941895 724.190247,1346.876709 723.489685,1347.843750 
	C725.060547,1330.439331 727.850342,1313.564453 737.662292,1298.812622 
	C738.941406,1296.889648 740.503784,1295.092407 742.197327,1293.519531 
	C747.594116,1288.507324 753.259277,1288.209473 759.518066,1292.110352 
	C761.023865,1293.048828 763.823486,1294.211060 764.572632,1293.569946 
	C765.989990,1292.356812 766.944519,1289.945190 767.057922,1287.972168 
	C767.827759,1274.578125 758.069153,1261.634888 744.907715,1259.123657 
	C730.177856,1256.313110 717.583008,1260.468384 707.801208,1272.153931 
	C699.875916,1281.621704 696.435120,1293.123535 692.978882,1305.486328 
M930.854919,1420.349854 
	C936.758911,1413.362427 941.634155,1405.995361 940.725647,1395.426758 
	C935.776550,1397.590576 931.999268,1399.721924 927.945618,1400.911621 
	C920.239685,1403.172852 915.764160,1399.650879 916.278748,1391.698486 
	C916.686218,1385.401123 917.132996,1378.961670 918.778320,1372.916260 
	C923.621155,1355.121704 929.019531,1337.476807 934.321716,1319.809814 
	C935.384033,1316.270386 937.169434,1312.870117 933.864136,1309.623291 
	C930.581909,1306.399292 926.670593,1306.438232 922.691833,1307.803223 
	C920.837036,1308.439575 919.054749,1309.453369 917.436829,1310.579468 
	C914.023438,1312.955200 910.663208,1315.422241 907.423340,1318.028564 
	C903.492065,1321.191162 900.198181,1320.831787 896.413330,1317.428589 
	C889.591553,1311.294800 881.827942,1307.226074 872.224976,1306.917725 
	C855.401794,1306.377686 842.713867,1313.618042 832.906311,1326.709595 
	C819.494568,1344.612183 816.130920,1365.157227 817.546082,1386.827393 
	C818.314941,1398.602173 820.981384,1409.880005 827.985168,1419.733521 
	C839.114868,1435.391968 859.999939,1436.268433 872.476685,1421.523071 
	C874.780090,1418.800903 876.761047,1415.805664 878.989136,1412.804077 
	C885.605896,1426.382202 895.206360,1432.786255 907.465881,1431.803589 
	C916.452942,1431.083130 924.150635,1427.480957 930.854919,1420.349854 
M308.054993,1379.519287 
	C308.410767,1384.158691 308.462433,1388.845337 309.174530,1393.429443 
	C312.379944,1414.065063 325.821594,1429.222900 344.169373,1433.186768 
	C375.085022,1439.865601 407.162750,1418.162720 413.351959,1386.225220 
	C413.737488,1384.235840 412.778229,1381.986084 412.444641,1379.857422 
	C410.546600,1380.556763 408.543121,1381.055664 406.768555,1381.989624 
	C398.581543,1386.298462 390.871216,1391.975830 382.220886,1394.839355 
	C367.136749,1399.832520 355.122559,1391.154297 352.583130,1374.644043 
	C354.464996,1374.926025 356.223541,1375.240723 357.994690,1375.447021 
	C380.913635,1378.115967 400.770996,1371.851807 415.631012,1353.817627 
	C429.991974,1336.389038 423.312317,1314.917358 401.768829,1308.357422 
	C386.798615,1303.798950 371.560364,1303.445435 356.584961,1308.824219 
	C327.874176,1319.136475 308.968384,1346.377075 308.054993,1379.519287 
M1254.494263,1380.960938 
	C1246.328857,1387.390747 1237.744141,1393.005859 1227.423828,1395.439209 
	C1213.081787,1398.820557 1200.934937,1390.089478 1199.247559,1375.092651 
	C1199.545044,1374.982788 1199.858032,1374.748901 1200.137329,1374.784180 
	C1201.622925,1374.971069 1203.094238,1375.277832 1204.581177,1375.448120 
	C1227.719849,1378.099487 1247.640137,1371.648315 1262.489258,1353.304199 
	C1276.132935,1336.448975 1269.587646,1315.219360 1248.939819,1308.578979 
	C1234.702515,1304.000244 1220.003662,1303.224609 1205.652100,1308.015869 
	C1163.957886,1321.935059 1145.049316,1366.186890 1159.096680,1405.306885 
	C1165.033813,1421.840698 1177.338867,1431.911377 1195.024048,1433.885986 
	C1214.875000,1436.102661 1231.702881,1429.209595 1245.419434,1414.811523 
	C1253.463013,1406.368286 1258.146606,1396.156616 1260.039307,1384.717407 
	C1260.840332,1379.875610 1259.637573,1379.042480 1254.494263,1380.960938 
M1349.296753,1371.216553 
	C1342.679810,1367.166748 1336.126099,1363.008179 1329.417480,1359.116577 
	C1326.419312,1357.377319 1322.633667,1356.733765 1320.084106,1354.561523 
	C1317.811279,1352.625122 1315.070068,1348.880249 1315.587280,1346.636963 
	C1316.204102,1343.960938 1319.742432,1340.991333 1322.624268,1340.084717 
	C1325.337158,1339.231445 1329.060547,1340.380249 1331.936401,1341.599243 
	C1334.769775,1342.800049 1337.145996,1345.131958 1339.637573,1347.076782 
	C1345.971313,1352.020508 1352.732544,1351.912964 1359.204468,1347.952026 
	C1363.097778,1345.569336 1366.803711,1342.434937 1369.662842,1338.887817 
	C1380.113159,1325.923706 1375.934326,1312.186035 1359.848145,1308.321777 
	C1350.899902,1306.172241 1341.401733,1305.488037 1332.161987,1305.557861 
	C1315.990601,1305.679932 1300.275757,1308.553467 1286.878174,1318.630249 
	C1272.939819,1329.113525 1272.790405,1342.751343 1286.479004,1353.358276 
	C1289.884399,1355.996948 1293.690186,1358.120239 1297.321777,1360.465210 
	C1298.517700,1361.237793 1299.744141,1361.963257 1301.536499,1363.067383 
	C1299.480225,1364.055298 1298.042603,1364.741455 1296.608643,1365.435425 
	C1284.541138,1371.275635 1274.003784,1378.927734 1267.349487,1390.924438 
	C1258.191040,1407.435669 1264.104370,1424.894531 1282.065918,1430.425171 
	C1305.659546,1437.690063 1328.121948,1434.157349 1347.119019,1417.590942 
	C1362.339722,1404.317749 1362.907104,1386.940430 1349.296753,1371.216553 
M628.527771,1320.961426 
	C635.240845,1328.588867 636.557129,1337.903931 636.850952,1347.543213 
	C637.032227,1353.489258 640.081909,1357.355225 645.538208,1357.884521 
	C655.134521,1358.815674 662.960327,1355.168579 668.420654,1347.357300 
	C673.604614,1339.941528 671.031128,1332.563477 666.516602,1325.950806 
	C663.932007,1322.165161 660.692383,1318.566528 657.045410,1315.814331 
	C645.173279,1306.855591 631.401184,1303.938110 616.868347,1305.435425 
	C577.022400,1309.540649 546.781738,1351.703613 555.247314,1390.954590 
	C560.483948,1415.234497 579.365112,1432.579712 602.154419,1434.104004 
	C635.195496,1436.313599 656.229492,1414.646851 662.232727,1385.182617 
	C662.579346,1383.481323 661.518005,1381.493164 661.111938,1379.638428 
	C659.369202,1380.253906 657.324768,1380.477905 655.933655,1381.549805 
	C648.097473,1387.588379 640.011047,1393.076782 630.199463,1395.422119 
	C617.171814,1398.536011 606.623962,1393.575806 601.018066,1381.417114 
	C595.843384,1370.193604 594.799255,1358.335571 596.603638,1346.239136 
	C597.953369,1337.190918 601.172485,1328.841797 607.553650,1322.040649 
	C614.438599,1314.702515 620.519836,1314.280396 628.527771,1320.961426 
M1097.942749,1295.447998 
	C1096.460449,1300.386230 1094.451660,1305.234253 1093.587524,1310.278442 
	C1089.907471,1331.760498 1086.224365,1353.253174 1083.230957,1374.837402 
	C1081.468262,1387.546021 1081.194702,1400.457153 1085.031494,1412.978027 
	C1088.254517,1423.494751 1094.514404,1430.692383 1106.312500,1431.880859 
	C1123.683228,1433.630737 1140.933228,1421.610596 1144.799805,1404.511475 
	C1145.382324,1401.935181 1144.880859,1399.113770 1144.880859,1395.532959 
	C1141.481079,1397.313965 1138.953125,1398.798096 1136.297363,1399.999390 
	C1128.961304,1403.317139 1123.843140,1401.202148 1121.786499,1393.411621 
	C1120.613403,1388.968140 1120.073364,1384.181763 1120.248901,1379.587891 
	C1121.092773,1357.511108 1124.703979,1335.835938 1132.200684,1315.038452 
	C1134.750000,1307.965820 1138.718140,1301.143799 1143.245117,1295.113403 
	C1148.446533,1288.184692 1154.948608,1287.801392 1161.657959,1292.407349 
	C1166.013184,1295.397095 1168.503052,1294.125854 1169.001221,1288.658447 
	C1170.231812,1275.148804 1160.033203,1261.314697 1146.728760,1258.997314 
	C1130.504517,1256.171631 1117.415405,1261.827881 1108.184204,1275.245361 
	C1104.081421,1281.208618 1101.448364,1288.183105 1097.942749,1295.447998 
M447.126221,1429.614990 
	C460.879883,1435.579102 475.095703,1430.832520 480.769958,1416.823486 
	C484.060364,1408.699829 484.785614,1399.483765 486.245056,1390.689575 
	C487.297485,1384.348022 486.420532,1377.413208 488.662537,1371.616577 
	C491.053406,1365.434937 495.742401,1359.985962 500.062134,1354.739136 
	C509.048279,1343.824219 514.254395,1343.429810 525.452881,1351.965942 
	C525.585327,1352.066895 525.714783,1352.171631 525.848450,1352.270996 
	C532.555847,1357.254150 539.082703,1356.905884 545.264648,1351.261841 
	C550.916626,1346.101685 553.854675,1339.473145 555.349548,1332.164551 
	C556.994995,1324.119263 556.577332,1316.242920 549.688599,1310.675781 
	C542.740540,1305.060669 534.728027,1306.168335 527.579834,1310.087524 
	C521.526733,1313.406494 515.605591,1317.499390 510.774139,1322.385010 
	C503.941498,1329.294434 498.165497,1337.248657 492.924835,1343.566406 
	C492.924835,1339.887573 493.170380,1334.639282 492.872742,1329.421997 
	C492.287567,1319.164185 485.805969,1311.010986 476.531189,1308.373901 
	C457.020691,1302.826416 432.772614,1318.552979 429.845978,1338.722412 
	C429.671631,1339.924072 429.813690,1341.661743 430.552887,1342.347046 
	C431.118744,1342.871704 432.953186,1342.351807 434.057922,1341.895752 
	C435.736267,1341.202637 437.226135,1340.067139 438.874512,1339.285034 
	C447.992676,1334.958496 453.588928,1338.150024 452.692871,1348.257080 
	C451.879608,1357.430908 449.589050,1366.537598 447.265228,1375.496338 
	C444.722229,1385.300293 440.840118,1394.772705 438.568115,1404.626465 
	C436.403778,1414.013062 437.970032,1422.913574 447.126221,1429.614990 
z"/>
<path fill="#F5F5F5" opacity="1.000000" stroke="none" 
	d="
M155.531342,1.000000 
	C150.391632,1.937162 144.788086,2.904394 139.174149,3.806911 
	C69.689529,14.977515 14.091100,71.167381 3.868470,140.686157 
	C2.925966,147.095612 2.583878,153.593369 1.686345,160.491577 
	C1.409698,160.933014 1.000000,161.000000 1.000000,161.000000 
	C1.000000,107.740814 1.000000,54.481636 1.000000,1.000000 
	C52.354015,1.000000 103.708351,1.000000 155.531342,1.000000 
z"/>
<path fill="#F5F5F5" opacity="1.000000" stroke="none" 
	d="
M1.805507,1441.068970 
	C4.738083,1497.631470 29.561182,1542.020630 76.407906,1573.758423 
	C100.334663,1589.968384 127.097885,1598.468628 156.459015,1600.383911 
	C156.939545,1600.590942 157.000000,1601.000000 157.000000,1601.000000 
	C105.072067,1601.000000 53.144135,1601.000000 1.000000,1601.000000 
	C1.000000,1547.979248 1.000000,1494.958252 1.198958,1441.514160 
	C1.397915,1441.090942 1.805507,1441.068970 1.805507,1441.068970 
z"/>
<path fill="#F5F5F5" opacity="1.000000" stroke="none" 
	d="
M1478.000000,149.531342 
	C1477.107910,145.570496 1476.148926,141.153275 1475.333374,136.709702 
	C1462.261353,65.478760 1405.087280,11.484987 1333.462524,2.791327 
	C1329.672363,2.331290 1325.850220,2.134114 1321.568359,1.606838 
	C1321.093628,1.399106 1321.000000,1.000000 1321.000000,1.000000 
	C1373.258423,1.000000 1425.516846,1.000000 1478.000000,1.000000 
	C1478.000000,50.354000 1478.000000,99.708344 1478.000000,149.531342 
z"/>
<path fill="#F5F5F5" opacity="1.000000" stroke="none" 
	d="
M1322.169312,1600.224121 
	C1396.247437,1597.471191 1461.621948,1540.593750 1474.983398,1467.219360 
	C1475.935059,1461.993530 1476.548218,1456.706177 1477.659424,1451.223633 
	C1478.000000,1500.928467 1478.000000,1550.856812 1478.000000,1601.000000 
	C1426.312622,1601.000000 1374.624878,1601.000000 1322.531006,1600.810425 
	C1322.124756,1600.620850 1322.169312,1600.224121 1322.169312,1600.224121 
z"/>
<path fill="#B3B3B3" opacity="1.000000" stroke="none" 
	d="
M1.896174,1440.621094 
	C1.805507,1441.068970 1.397915,1441.090942 1.198958,1441.045410 
	C1.000000,1014.631775 1.000000,588.263489 1.000000,161.447632 
	C1.000000,161.000000 1.409698,160.933014 1.617250,160.934753 
	C1.883504,161.931061 1.993655,162.925598 1.993661,163.920151 
	C1.996330,589.337830 1.991531,1014.755554 1.896174,1440.621094 
z"/>
<path fill="#777777" opacity="1.000000" stroke="none" 
	d="
M1321.713989,1600.107910 
	C1322.169312,1600.224121 1322.124756,1600.620850 1322.062378,1600.810425 
	C933.965088,1601.000000 545.930176,1601.000000 157.447632,1601.000000 
	C157.000000,1601.000000 156.939545,1600.590942 156.897385,1600.388672 
	C158.011307,1600.124512 159.167404,1600.008423 160.323486,1600.008423 
	C547.301880,1599.997437 934.280273,1599.994629 1321.713989,1600.107910 
z"/>
<path fill="#777777" opacity="1.000000" stroke="none" 
	d="
M1320.544067,1.000000 
	C1321.000000,1.000000 1321.093628,1.399106 1321.122192,1.602037 
	C1319.162109,1.870600 1317.173584,1.993704 1315.184937,1.993741 
	C931.888123,2.000869 548.591370,1.999658 165.294556,1.987576 
	C163.308914,1.987514 161.323288,1.829811 159.168823,1.372863 
	C546.029358,1.000000 933.058777,1.000000 1320.544067,1.000000 
z"/>
<path fill="#EBA8BF" opacity="1.000000" stroke="none" 
	d="
M221.813171,451.999939 
	C221.859955,421.668427 221.383591,391.825165 222.051346,362.007568 
	C224.076553,271.575592 289.468201,190.621414 377.424072,168.993256 
	C394.479584,164.799347 411.736542,162.641144 429.341858,162.647369 
	C636.835449,162.720673 844.329102,162.684250 1051.822754,162.695587 
	C1159.276001,162.701447 1249.252075,246.261154 1257.270752,353.503937 
	C1257.717407,359.477173 1257.942383,365.481506 1257.943359,371.471436 
	C1257.977051,578.798401 1258.114380,786.125610 1257.872925,993.452271 
	C1257.810913,1046.697754 1239.285522,1093.342285 1203.066040,1132.328491 
	C1161.794556,1176.752808 1110.361572,1199.038696 1049.649048,1199.066650 
	C842.822021,1199.161987 635.994995,1199.110596 429.167999,1199.101440 
	C333.445862,1199.097290 250.335297,1134.374268 227.884521,1041.446655 
	C224.085480,1025.721680 222.106003,1009.163086 222.069931,992.983459 
	C221.668320,812.822937 221.814667,632.661316 221.813171,451.999939 
M818.766357,622.499939 
	C818.766357,641.087769 818.766357,659.675537 818.766357,678.315063 
	C765.133240,678.315063 712.231262,678.315063 658.843201,678.315063 
	C658.843201,622.340942 658.843201,566.748474 658.843201,510.472656 
	C602.490967,510.472656 546.621948,510.472656 490.208557,510.472656 
	C490.208557,455.568085 490.208557,401.347656 490.208557,347.207764 
	C434.093781,347.207764 378.530975,347.207764 323.052673,347.207764 
	C323.052673,403.031464 323.052673,458.462219 323.052673,514.531494 
	C377.544556,514.531494 431.746460,514.531494 486.346313,514.531494 
	C486.346313,570.943542 486.346313,626.717407 486.346313,683.177490 
	C542.769226,683.177490 598.792725,683.177490 655.310547,683.177490 
	C655.310547,738.767700 655.310547,793.670532 655.310547,848.561218 
	C711.228699,848.561218 766.645508,848.561218 822.608093,848.561218 
	C822.608093,793.372131 822.608093,738.462891 822.608093,682.959045 
	C879.028320,682.959045 934.905334,682.959045 991.244995,682.959045 
	C991.244995,626.466614 991.244995,570.571106 991.244995,514.235779 
	C1046.630859,514.235779 1101.550537,514.235779 1156.627686,514.235779 
	C1156.627686,458.243103 1156.627686,402.694916 1156.627686,347.248718 
	C1099.905640,347.248718 1043.525391,347.248718 986.798828,347.248718 
	C986.798828,401.786316 986.798828,455.896667 986.798828,510.576172 
	C930.721924,510.576172 874.989929,510.576172 818.766296,510.576172 
	C818.766296,547.930176 818.766296,584.715027 818.766357,622.499939 
M986.966003,907.500000 
	C986.966003,943.248718 986.966003,978.997437 986.966003,1014.636963 
	C1044.049683,1014.636963 1100.409302,1014.636963 1156.683105,1014.636963 
	C1156.683105,957.919373 1156.683105,901.658264 1156.683105,845.200562 
	C1100.049316,845.200562 1043.703491,845.200562 986.966003,845.200562 
	C986.966003,865.899536 986.966003,886.199768 986.966003,907.500000 
M350.500031,844.802734 
	C341.403473,844.802734 332.306946,844.802734 323.066559,844.802734 
	C323.066559,901.884460 323.066559,958.245239 323.066559,1014.786377 
	C378.909821,1014.786377 434.443970,1014.786377 490.072998,1014.786377 
	C490.072998,958.104980 490.072998,901.729187 490.072998,844.802673 
	C443.674438,844.802673 397.587250,844.802673 350.500031,844.802734 
z"/>
<path fill="#E8A6BD" opacity="1.000000" stroke="none" 
	d="
M238.957245,1412.900269 
	C238.803879,1403.240967 238.021271,1393.906860 238.895370,1384.730713 
	C239.981949,1373.323608 242.608734,1362.070312 244.177719,1350.696533 
	C244.553192,1347.974854 243.375137,1345.038940 242.911545,1342.201416 
	C240.496292,1343.959473 237.351715,1345.232300 235.799866,1347.564575 
	C230.737854,1355.172729 225.979858,1363.020752 221.705811,1371.094604 
	C220.247726,1373.848755 220.467468,1377.532837 220.094650,1380.812012 
	C218.988342,1390.541992 218.882309,1400.494995 216.674622,1409.961914 
	C214.143661,1420.815063 207.869858,1429.433960 195.787308,1431.683350 
	C181.409378,1434.359985 170.309326,1425.792480 171.254532,1411.240112 
	C171.845963,1402.134277 175.300018,1393.196167 177.639191,1384.227051 
	C180.194641,1374.428711 183.043961,1364.706421 185.544235,1354.894775 
	C186.191635,1352.354126 186.271515,1349.587891 186.118484,1346.953857 
	C186.022964,1345.309448 185.003250,1343.718750 184.398224,1342.103760 
	C182.986191,1342.839355 181.004822,1343.206299 180.252197,1344.368774 
	C174.209442,1353.702026 167.658859,1362.826904 162.839630,1372.778687 
	C160.550842,1377.505127 162.006836,1383.939575 161.219589,1389.523071 
	C160.018250,1398.043579 159.311722,1406.818970 156.626602,1414.898438 
	C153.169571,1425.300659 145.334381,1431.619385 133.793579,1432.062988 
	C121.323357,1432.542603 112.470665,1424.885376 113.131859,1412.420654 
	C113.599640,1403.602173 116.316200,1394.847412 118.525681,1386.191040 
	C121.233475,1375.582153 124.668037,1365.157959 127.337486,1354.540527 
	C128.162704,1351.258423 127.982819,1347.531128 127.439377,1344.139648 
	C126.469421,1338.086426 122.632309,1335.983032 116.892044,1338.056396 
	C114.255234,1339.008911 111.859543,1340.610229 109.286179,1341.765137 
	C108.157013,1342.271851 106.856972,1342.397827 105.634544,1342.696777 
	C105.345688,1341.316772 104.537949,1339.794312 104.870087,1338.584839 
	C105.700905,1335.559326 106.709518,1332.484009 108.245911,1329.767578 
	C116.155426,1315.783691 127.314026,1306.670532 144.278900,1307.250122 
	C158.610931,1307.739990 167.667511,1317.227905 167.952759,1331.623779 
	C168.011841,1334.605591 167.961319,1337.589355 167.961319,1341.603638 
	C169.206924,1339.796753 169.886551,1338.615723 170.750046,1337.589355 
	C177.574829,1329.477173 183.922714,1320.875122 191.440247,1313.461182 
	C197.842484,1307.147095 206.392227,1305.928345 215.276093,1307.969971 
	C221.936310,1309.500732 226.015686,1313.575806 226.513855,1320.278809 
	C227.015167,1327.024048 226.624161,1333.835693 226.624161,1341.010620 
	C227.445770,1339.847412 228.291107,1338.754395 229.027206,1337.592163 
	C234.847961,1328.401367 241.246933,1319.725952 250.070068,1313.101074 
	C256.218140,1308.484619 262.978760,1306.367676 270.681885,1307.420654 
	C279.856445,1308.674927 284.979065,1313.269409 284.770782,1322.476807 
	C284.546600,1332.385620 283.058350,1342.304321 281.574890,1352.136230 
	C279.812073,1363.820068 277.439789,1375.411377 275.402313,1387.055176 
	C275.088837,1388.846558 275.024963,1390.707520 275.068268,1392.531128 
	C275.241821,1399.843140 279.573212,1403.308716 286.628906,1401.274414 
	C290.713409,1400.096802 294.522949,1397.965576 299.068024,1395.998779 
	C299.318787,1397.880493 300.025116,1399.677734 299.697876,1401.261353 
	C296.071503,1418.811157 280.289093,1434.419678 259.602081,1431.746948 
	C248.542328,1430.317993 242.052567,1423.739380 238.957245,1412.900269 
z"/>
<path fill="#E8A6BD" opacity="1.000000" stroke="none" 
	d="
M693.053528,1305.083496 
	C696.435120,1293.123535 699.875916,1281.621704 707.801208,1272.153931 
	C717.583008,1260.468384 730.177856,1256.313110 744.907715,1259.123657 
	C758.069153,1261.634888 767.827759,1274.578125 767.057922,1287.972168 
	C766.944519,1289.945190 765.989990,1292.356812 764.572632,1293.569946 
	C763.823486,1294.211060 761.023865,1293.048828 759.518066,1292.110352 
	C753.259277,1288.209473 747.594116,1288.507324 742.197327,1293.519531 
	C740.503784,1295.092407 738.941406,1296.889648 737.662292,1298.812622 
	C727.850342,1313.564453 725.060547,1330.439331 723.489685,1347.843750 
	C724.190247,1346.876709 724.941284,1345.941895 725.583801,1344.937866 
	C733.685364,1332.277466 743.791077,1321.580078 756.493652,1313.446899 
	C763.390808,1309.030762 770.763000,1306.335815 779.160950,1307.241089 
	C788.832397,1308.283569 794.070923,1312.993164 793.963196,1322.696899 
	C793.862122,1331.793335 792.621033,1340.924805 791.266663,1349.948486 
	C789.341736,1362.774292 786.750671,1375.498535 784.665039,1388.302246 
	C783.970276,1392.567383 783.490356,1397.238525 787.667114,1400.201294 
	C792.090332,1403.338501 796.628662,1401.501587 800.931335,1399.501953 
	C803.155945,1398.468018 805.239380,1397.130493 808.230835,1395.458130 
	C808.435242,1398.096558 808.938843,1400.023560 808.669250,1401.835449 
	C806.333435,1417.535400 790.530823,1431.514893 774.659668,1432.071777 
	C758.892883,1432.625122 747.673035,1423.166626 747.271240,1406.799805 
	C746.976257,1394.787842 749.106934,1382.697510 750.433472,1370.672485 
	C751.126404,1364.390015 752.490295,1358.184082 753.393616,1351.920898 
	C753.674927,1349.970093 753.686829,1347.907959 753.394104,1345.961060 
	C752.637451,1340.929077 749.491089,1339.354980 745.254089,1342.250244 
	C741.852234,1344.574951 738.795227,1347.489014 735.891113,1350.442261 
	C724.458435,1362.068359 717.725037,1375.351685 719.298157,1392.430054 
	C720.265747,1402.933472 718.468384,1413.356567 712.312439,1422.538208 
	C709.279602,1427.061646 705.325073,1429.999268 700.027649,1431.276855 
	C683.547668,1435.251221 671.739624,1425.991577 672.050293,1409.041870 
	C672.122803,1405.086060 672.506348,1400.941895 673.771179,1397.233765 
	C681.830017,1373.607788 685.536255,1349.105225 689.085571,1324.541748 
	C690.011169,1318.136108 691.661499,1311.835327 693.053528,1305.083496 
z"/>
<path fill="#E8A6BD" opacity="1.000000" stroke="none" 
	d="
M1000.025391,1346.025635 
	C1006.443665,1338.271362 1012.285278,1329.922974 1019.464844,1322.952881 
	C1025.087769,1317.494019 1031.928833,1312.825073 1039.009033,1309.435303 
	C1051.248901,1303.575073 1062.094238,1308.064697 1068.125000,1320.171875 
	C1073.850708,1331.666870 1073.932007,1343.956787 1072.971313,1356.323120 
	C1071.420410,1376.286621 1066.306885,1395.011597 1053.182129,1410.791138 
	C1046.916138,1418.324463 1039.515503,1424.449097 1030.480103,1428.369141 
	C1014.499207,1435.302002 1002.634460,1432.822632 990.552612,1419.978760 
	C989.470642,1421.351440 988.438843,1422.729248 987.336426,1424.048218 
	C981.120239,1431.485474 970.478394,1434.161865 960.966492,1430.701782 
	C953.546814,1428.002808 948.213989,1419.769287 948.273621,1410.386597 
	C948.297668,1406.600708 948.594482,1402.625977 949.769409,1399.068237 
	C958.060669,1373.963135 961.891052,1347.958252 966.010193,1321.979858 
	C968.359253,1307.164551 971.624512,1292.514404 979.254089,1279.285767 
	C988.508362,1263.239990 1004.002502,1255.582642 1020.612000,1258.976807 
	C1037.511841,1262.430176 1043.543335,1276.763916 1043.120239,1289.433228 
	C1042.958618,1294.270020 1040.428467,1295.236328 1036.246460,1292.433838 
	C1029.604370,1287.983276 1023.914673,1288.275635 1018.208496,1293.887939 
	C1009.546387,1302.407593 1006.114441,1313.643921 1003.152771,1324.929932 
	C1001.427002,1331.506226 1000.628601,1338.325806 999.385071,1345.489258 
	C999.498901,1346.206421 999.640747,1346.470459 999.782654,1346.734497 
	C999.863586,1346.498169 999.944519,1346.261963 1000.025391,1346.025635 
M1031.839600,1381.215820 
	C1035.331909,1370.129150 1036.930176,1358.783569 1035.307007,1347.243896 
	C1034.102417,1338.681030 1030.155396,1336.923950 1022.958740,1341.446777 
	C1011.653259,1348.552002 1003.961304,1358.955200 997.547546,1370.392822 
	C996.860962,1371.617188 996.788025,1373.267700 996.706787,1374.735962 
	C996.155579,1384.700806 995.571533,1394.666992 995.305481,1404.640869 
	C995.269836,1405.977905 996.646851,1407.961548 997.906616,1408.623169 
	C1004.809448,1412.247803 1013.805298,1410.135010 1019.965393,1402.141968 
	C1024.657837,1396.053101 1027.733887,1388.718628 1031.839600,1381.215820 
z"/>
<path fill="#E8A6BC" opacity="1.000000" stroke="none" 
	d="
M930.601807,1420.596436 
	C924.150635,1427.480957 916.452942,1431.083130 907.465881,1431.803589 
	C895.206360,1432.786255 885.605896,1426.382202 878.989136,1412.804077 
	C876.761047,1415.805664 874.780090,1418.800903 872.476685,1421.523071 
	C859.999939,1436.268433 839.114868,1435.391968 827.985168,1419.733521 
	C820.981384,1409.880005 818.314941,1398.602173 817.546082,1386.827393 
	C816.130920,1365.157227 819.494568,1344.612183 832.906311,1326.709595 
	C842.713867,1313.618042 855.401794,1306.377686 872.224976,1306.917725 
	C881.827942,1307.226074 889.591553,1311.294800 896.413330,1317.428589 
	C900.198181,1320.831787 903.492065,1321.191162 907.423340,1318.028564 
	C910.663208,1315.422241 914.023438,1312.955200 917.436829,1310.579468 
	C919.054749,1309.453369 920.837036,1308.439575 922.691833,1307.803223 
	C926.670593,1306.438232 930.581909,1306.399292 933.864136,1309.623291 
	C937.169434,1312.870117 935.384033,1316.270386 934.321716,1319.809814 
	C929.019531,1337.476807 923.621155,1355.121704 918.778320,1372.916260 
	C917.132996,1378.961670 916.686218,1385.401123 916.278748,1391.698486 
	C915.764160,1399.650879 920.239685,1403.172852 927.945618,1400.911621 
	C931.999268,1399.721924 935.776550,1397.590576 940.725647,1395.426758 
	C941.634155,1405.995361 936.758911,1413.362427 930.601807,1420.596436 
M892.826355,1331.616699 
	C881.686646,1322.834595 872.659363,1324.306885 864.934021,1336.379883 
	C862.974792,1339.441895 861.296265,1342.769775 860.037415,1346.177979 
	C855.609314,1358.166992 853.331970,1370.601685 853.954834,1383.387451 
	C854.210999,1388.646240 854.958740,1394.039185 856.536499,1399.038452 
	C858.898376,1406.522583 865.221069,1408.204712 871.498169,1403.437622 
	C873.290710,1402.076172 875.010681,1400.168213 875.884949,1398.133179 
	C878.501343,1392.043579 881.175293,1385.902954 882.933838,1379.535767 
	C886.962097,1364.950928 890.492065,1350.227661 894.105957,1335.531372 
	C894.358948,1334.502441 893.639099,1333.234253 892.826355,1331.616699 
z"/>
<path fill="#E8A6BC" opacity="1.000000" stroke="none" 
	d="
M308.054932,1379.036133 
	C308.968384,1346.377075 327.874176,1319.136475 356.584961,1308.824219 
	C371.560364,1303.445435 386.798615,1303.798950 401.768829,1308.357422 
	C423.312317,1314.917358 429.991974,1336.389038 415.631012,1353.817627 
	C400.770996,1371.851807 380.913635,1378.115967 357.994690,1375.447021 
	C356.223541,1375.240723 354.464996,1374.926025 352.583130,1374.644043 
	C355.122559,1391.154297 367.136749,1399.832520 382.220886,1394.839355 
	C390.871216,1391.975830 398.581543,1386.298462 406.768555,1381.989624 
	C408.543121,1381.055664 410.546600,1380.556763 412.444641,1379.857422 
	C412.778229,1381.986084 413.737488,1384.235840 413.351959,1386.225220 
	C407.162750,1418.162720 375.085022,1439.865601 344.169373,1433.186768 
	C325.821594,1429.222900 312.379944,1414.065063 309.174530,1393.429443 
	C308.462433,1388.845337 308.410767,1384.158691 308.054932,1379.036133 
M351.005890,1345.658691 
	C350.662323,1349.124756 350.113953,1352.585327 350.018036,1356.058228 
	C349.822235,1363.150513 350.701874,1363.832520 357.631836,1362.729492 
	C372.085022,1360.429199 388.175171,1341.175171 387.959564,1326.438599 
	C387.859680,1319.610718 384.068542,1315.306641 377.368591,1316.306641 
	C372.539490,1317.027466 367.395844,1319.110352 363.530518,1322.071289 
	C356.258759,1327.642090 353.289337,1336.148315 351.005890,1345.658691 
z"/>
<path fill="#E8A6BC" opacity="1.000000" stroke="none" 
	d="
M1254.782959,1380.745117 
	C1259.637573,1379.042480 1260.840332,1379.875610 1260.039307,1384.717407 
	C1258.146606,1396.156616 1253.463013,1406.368286 1245.419434,1414.811523 
	C1231.702881,1429.209595 1214.875000,1436.102661 1195.024048,1433.885986 
	C1177.338867,1431.911377 1165.033813,1421.840698 1159.096680,1405.306885 
	C1145.049316,1366.186890 1163.957886,1321.935059 1205.652100,1308.015869 
	C1220.003662,1303.224609 1234.702515,1304.000244 1248.939819,1308.578979 
	C1269.587646,1315.219360 1276.132935,1336.448975 1262.489258,1353.304199 
	C1247.640137,1371.648315 1227.719849,1378.099487 1204.581177,1375.448120 
	C1203.094238,1375.277832 1201.622925,1374.971069 1200.137329,1374.784180 
	C1199.858032,1374.748901 1199.545044,1374.982788 1199.249756,1375.098877 
	C1200.934937,1390.089478 1213.081787,1398.820557 1227.423828,1395.439209 
	C1237.744141,1393.005859 1246.328857,1387.390747 1254.782959,1380.745117 
M1205.587280,1362.395752 
	C1222.052490,1356.832031 1231.049805,1344.843628 1234.150269,1328.265015 
	C1235.672852,1320.122925 1230.287476,1314.851807 1222.132690,1316.296509 
	C1218.344604,1316.967529 1214.196411,1318.434326 1211.304810,1320.849609 
	C1198.307007,1331.706177 1196.067139,1346.467896 1196.774658,1362.584106 
	C1199.863647,1362.584106 1202.313721,1362.584106 1205.587280,1362.395752 
z"/>
<path fill="#E8A6BC" opacity="1.000000" stroke="none" 
	d="
M1349.543457,1371.470215 
	C1362.907104,1386.940430 1362.339722,1404.317749 1347.119019,1417.590942 
	C1328.121948,1434.157349 1305.659546,1437.690063 1282.065918,1430.425171 
	C1264.104370,1424.894531 1258.191040,1407.435669 1267.349487,1390.924438 
	C1274.003784,1378.927734 1284.541138,1371.275635 1296.608643,1365.435425 
	C1298.042603,1364.741455 1299.480225,1364.055298 1301.536499,1363.067383 
	C1299.744141,1361.963257 1298.517700,1361.237793 1297.321777,1360.465210 
	C1293.690186,1358.120239 1289.884399,1355.996948 1286.479004,1353.358276 
	C1272.790405,1342.751343 1272.939819,1329.113525 1286.878174,1318.630249 
	C1300.275757,1308.553467 1315.990601,1305.679932 1332.161987,1305.557861 
	C1341.401733,1305.488037 1350.899902,1306.172241 1359.848145,1308.321777 
	C1375.934326,1312.186035 1380.113159,1325.923706 1369.662842,1338.887817 
	C1366.803711,1342.434937 1363.097778,1345.569336 1359.204468,1347.952026 
	C1352.732544,1351.912964 1345.971313,1352.020508 1339.637573,1347.076782 
	C1337.145996,1345.131958 1334.769775,1342.800049 1331.936401,1341.599243 
	C1329.060547,1340.380249 1325.337158,1339.231445 1322.624268,1340.084717 
	C1319.742432,1340.991333 1316.204102,1343.960938 1315.587280,1346.636963 
	C1315.070068,1348.880249 1317.811279,1352.625122 1320.084106,1354.561523 
	C1322.633667,1356.733765 1326.419312,1357.377319 1329.417480,1359.116577 
	C1336.126099,1363.008179 1342.679810,1367.166748 1349.543457,1371.470215 
M1301.529419,1379.055542 
	C1300.401855,1380.278809 1298.836060,1381.322266 1298.244019,1382.765381 
	C1297.226318,1385.245361 1295.516113,1388.727661 1296.487427,1390.403931 
	C1297.637085,1392.388062 1301.398682,1394.006958 1303.887939,1393.828369 
	C1309.098389,1393.454956 1314.425537,1392.352905 1319.313232,1390.510986 
	C1324.001709,1388.744141 1328.416504,1385.631714 1328.069336,1379.622314 
	C1327.740845,1373.934814 1322.927246,1372.206787 1318.575317,1370.590454 
	C1316.981934,1369.998535 1314.556274,1370.114868 1313.112061,1370.949341 
	C1309.248047,1373.182007 1305.709717,1375.978516 1301.529419,1379.055542 
z"/>
<path fill="#E8A6BD" opacity="1.000000" stroke="none" 
	d="
M628.270020,1320.699097 
	C620.519836,1314.280396 614.438599,1314.702515 607.553650,1322.040649 
	C601.172485,1328.841797 597.953369,1337.190918 596.603638,1346.239136 
	C594.799255,1358.335571 595.843384,1370.193604 601.018066,1381.417114 
	C606.623962,1393.575806 617.171814,1398.536011 630.199463,1395.422119 
	C640.011047,1393.076782 648.097473,1387.588379 655.933655,1381.549805 
	C657.324768,1380.477905 659.369202,1380.253906 661.111938,1379.638428 
	C661.518005,1381.493164 662.579346,1383.481323 662.232727,1385.182617 
	C656.229492,1414.646851 635.195496,1436.313599 602.154419,1434.104004 
	C579.365112,1432.579712 560.483948,1415.234497 555.247314,1390.954590 
	C546.781738,1351.703613 577.022400,1309.540649 616.868347,1305.435425 
	C631.401184,1303.938110 645.173279,1306.855591 657.045410,1315.814331 
	C660.692383,1318.566528 663.932007,1322.165161 666.516602,1325.950806 
	C671.031128,1332.563477 673.604614,1339.941528 668.420654,1347.357300 
	C662.960327,1355.168579 655.134521,1358.815674 645.538208,1357.884521 
	C640.081909,1357.355225 637.032227,1353.489258 636.850952,1347.543213 
	C636.557129,1337.903931 635.240845,1328.588867 628.270020,1320.699097 
z"/>
<path fill="#E8A6BD" opacity="1.000000" stroke="none" 
	d="
M1098.045410,1295.073242 
	C1101.448364,1288.183105 1104.081421,1281.208618 1108.184204,1275.245361 
	C1117.415405,1261.827881 1130.504517,1256.171631 1146.728760,1258.997314 
	C1160.033203,1261.314697 1170.231812,1275.148804 1169.001221,1288.658447 
	C1168.503052,1294.125854 1166.013184,1295.397095 1161.657959,1292.407349 
	C1154.948608,1287.801392 1148.446533,1288.184692 1143.245117,1295.113403 
	C1138.718140,1301.143799 1134.750000,1307.965820 1132.200684,1315.038452 
	C1124.703979,1335.835938 1121.092773,1357.511108 1120.248901,1379.587891 
	C1120.073364,1384.181763 1120.613403,1388.968140 1121.786499,1393.411621 
	C1123.843140,1401.202148 1128.961304,1403.317139 1136.297363,1399.999390 
	C1138.953125,1398.798096 1141.481079,1397.313965 1144.880859,1395.532959 
	C1144.880859,1399.113770 1145.382324,1401.935181 1144.799805,1404.511475 
	C1140.933228,1421.610596 1123.683228,1433.630737 1106.312500,1431.880859 
	C1094.514404,1430.692383 1088.254517,1423.494751 1085.031494,1412.978027 
	C1081.194702,1400.457153 1081.468262,1387.546021 1083.230957,1374.837402 
	C1086.224365,1353.253174 1089.907471,1331.760498 1093.587524,1310.278442 
	C1094.451660,1305.234253 1096.460449,1300.386230 1098.045410,1295.073242 
z"/>
<path fill="#E8A6BC" opacity="1.000000" stroke="none" 
	d="
M446.811401,1429.408203 
	C437.970032,1422.913574 436.403778,1414.013062 438.568115,1404.626465 
	C440.840118,1394.772705 444.722229,1385.300293 447.265228,1375.496338 
	C449.589050,1366.537598 451.879608,1357.430908 452.692871,1348.257080 
	C453.588928,1338.150024 447.992676,1334.958496 438.874512,1339.285034 
	C437.226135,1340.067139 435.736267,1341.202637 434.057922,1341.895752 
	C432.953186,1342.351807 431.118744,1342.871704 430.552887,1342.347046 
	C429.813690,1341.661743 429.671631,1339.924072 429.845978,1338.722412 
	C432.772614,1318.552979 457.020691,1302.826416 476.531189,1308.373901 
	C485.805969,1311.010986 492.287567,1319.164185 492.872742,1329.421997 
	C493.170380,1334.639282 492.924835,1339.887573 492.924835,1343.566406 
	C498.165497,1337.248657 503.941498,1329.294434 510.774139,1322.385010 
	C515.605591,1317.499390 521.526733,1313.406494 527.579834,1310.087524 
	C534.728027,1306.168335 542.740540,1305.060669 549.688599,1310.675781 
	C556.577332,1316.242920 556.994995,1324.119263 555.349548,1332.164551 
	C553.854675,1339.473145 550.916626,1346.101685 545.264648,1351.261841 
	C539.082703,1356.905884 532.555847,1357.254150 525.848450,1352.270996 
	C525.714783,1352.171631 525.585327,1352.066895 525.452881,1351.965942 
	C514.254395,1343.429810 509.048279,1343.824219 500.062134,1354.739136 
	C495.742401,1359.985962 491.053406,1365.434937 488.662537,1371.616577 
	C486.420532,1377.413208 487.297485,1384.348022 486.245056,1390.689575 
	C484.785614,1399.483765 484.060364,1408.699829 480.769958,1416.823486 
	C475.095703,1430.832520 460.879883,1435.579102 446.811401,1429.408203 
z"/>
<path fill="#010000" opacity="1.000000" stroke="none" 
	d="
M818.766357,621.999878 
	C818.766296,584.715027 818.766296,547.930176 818.766296,510.576172 
	C874.989929,510.576172 930.721924,510.576172 986.798828,510.576172 
	C986.798828,455.896667 986.798828,401.786316 986.798828,347.248718 
	C1043.525391,347.248718 1099.905640,347.248718 1156.627686,347.248718 
	C1156.627686,402.694916 1156.627686,458.243103 1156.627686,514.235779 
	C1101.550537,514.235779 1046.630859,514.235779 991.244995,514.235779 
	C991.244995,570.571106 991.244995,626.466614 991.244995,682.959045 
	C934.905334,682.959045 879.028320,682.959045 822.608093,682.959045 
	C822.608093,738.462891 822.608093,793.372131 822.608093,848.561218 
	C766.645508,848.561218 711.228699,848.561218 655.310547,848.561218 
	C655.310547,793.670532 655.310547,738.767700 655.310547,683.177490 
	C598.792725,683.177490 542.769226,683.177490 486.346313,683.177490 
	C486.346313,626.717407 486.346313,570.943542 486.346313,514.531494 
	C431.746460,514.531494 377.544556,514.531494 323.052673,514.531494 
	C323.052673,458.462219 323.052673,403.031464 323.052673,347.207764 
	C378.530975,347.207764 434.093781,347.207764 490.208557,347.207764 
	C490.208557,401.347656 490.208557,455.568085 490.208557,510.472656 
	C546.621948,510.472656 602.490967,510.472656 658.843201,510.472656 
	C658.843201,566.748474 658.843201,622.340942 658.843201,678.315063 
	C712.231262,678.315063 765.133240,678.315063 818.766357,678.315063 
	C818.766357,659.675537 818.766357,641.087769 818.766357,621.999878 
z"/>
<path fill="#010001" opacity="1.000000" stroke="none" 
	d="
M986.966003,907.000000 
	C986.966003,886.199768 986.966003,865.899536 986.966003,845.200562 
	C1043.703491,845.200562 1100.049316,845.200562 1156.683105,845.200562 
	C1156.683105,901.658264 1156.683105,957.919373 1156.683105,1014.636963 
	C1100.409302,1014.636963 1044.049683,1014.636963 986.966003,1014.636963 
	C986.966003,978.997437 986.966003,943.248718 986.966003,907.000000 
z"/>
<path fill="#010000" opacity="1.000000" stroke="none" 
	d="
M351.000061,844.802734 
	C397.587250,844.802673 443.674438,844.802673 490.072998,844.802673 
	C490.072998,901.729187 490.072998,958.104980 490.072998,1014.786377 
	C434.443970,1014.786377 378.909821,1014.786377 323.066559,1014.786377 
	C323.066559,958.245239 323.066559,901.884460 323.066559,844.802734 
	C332.306946,844.802734 341.403473,844.802734 351.000061,844.802734 
z"/>
<path fill="#060303" opacity="1.000000" stroke="none" 
	d="
M1031.684326,1381.577026 
	C1027.733887,1388.718628 1024.657837,1396.053101 1019.965393,1402.141968 
	C1013.805298,1410.135010 1004.809448,1412.247803 997.906616,1408.623169 
	C996.646851,1407.961548 995.269836,1405.977905 995.305481,1404.640869 
	C995.571533,1394.666992 996.155579,1384.700806 996.706787,1374.735962 
	C996.788025,1373.267700 996.860962,1371.617188 997.547546,1370.392822 
	C1003.961304,1358.955200 1011.653259,1348.552002 1022.958740,1341.446777 
	C1030.155396,1336.923950 1034.102417,1338.681030 1035.307007,1347.243896 
	C1036.930176,1358.783569 1035.331909,1370.129150 1031.684326,1381.577026 
z"/>
<path fill="#010000" opacity="1.000000" stroke="none" 
	d="
M999.979370,1345.975586 
	C999.944519,1346.261963 999.863586,1346.498169 999.782654,1346.734497 
	C999.640747,1346.470459 999.498901,1346.206421 999.600769,1345.882568 
	C999.844482,1345.822632 999.933289,1345.925537 999.979370,1345.975586 
z"/>
<path fill="#050303" opacity="1.000000" stroke="none" 
	d="
M893.098999,1331.847046 
	C893.639099,1333.234253 894.358948,1334.502441 894.105957,1335.531372 
	C890.492065,1350.227661 886.962097,1364.950928 882.933838,1379.535767 
	C881.175293,1385.902954 878.501343,1392.043579 875.884949,1398.133179 
	C875.010681,1400.168213 873.290710,1402.076172 871.498169,1403.437622 
	C865.221069,1408.204712 858.898376,1406.522583 856.536499,1399.038452 
	C854.958740,1394.039185 854.210999,1388.646240 853.954834,1383.387451 
	C853.331970,1370.601685 855.609314,1358.166992 860.037415,1346.177979 
	C861.296265,1342.769775 862.974792,1339.441895 864.934021,1336.379883 
	C872.659363,1324.306885 881.686646,1322.834595 893.098999,1331.847046 
z"/>
<path fill="#070404" opacity="1.000000" stroke="none" 
	d="
M351.064362,1345.239746 
	C353.289337,1336.148315 356.258759,1327.642090 363.530518,1322.071289 
	C367.395844,1319.110352 372.539490,1317.027466 377.368591,1316.306641 
	C384.068542,1315.306641 387.859680,1319.610718 387.959564,1326.438599 
	C388.175171,1341.175171 372.085022,1360.429199 357.631836,1362.729492 
	C350.701874,1363.832520 349.822235,1363.150513 350.018036,1356.058228 
	C350.113953,1352.585327 350.662323,1349.124756 351.064362,1345.239746 
z"/>
<path fill="#070404" opacity="1.000000" stroke="none" 
	d="
M1205.175537,1362.489990 
	C1202.313721,1362.584106 1199.863647,1362.584106 1196.774658,1362.584106 
	C1196.067139,1346.467896 1198.307007,1331.706177 1211.304810,1320.849609 
	C1214.196411,1318.434326 1218.344604,1316.967529 1222.132690,1316.296509 
	C1230.287476,1314.851807 1235.672852,1320.122925 1234.150269,1328.265015 
	C1231.049805,1344.843628 1222.052490,1356.832031 1205.175537,1362.489990 
z"/>
<path fill="#090405" opacity="1.000000" stroke="none" 
	d="
M1301.785645,1378.803223 
	C1305.709717,1375.978516 1309.248047,1373.182007 1313.112061,1370.949341 
	C1314.556274,1370.114868 1316.981934,1369.998535 1318.575317,1370.590454 
	C1322.927246,1372.206787 1327.740845,1373.934814 1328.069336,1379.622314 
	C1328.416504,1385.631714 1324.001709,1388.744141 1319.313232,1390.510986 
	C1314.425537,1392.352905 1309.098389,1393.454956 1303.887939,1393.828369 
	C1301.398682,1394.006958 1297.637085,1392.388062 1296.487427,1390.403931 
	C1295.516113,1388.727661 1297.226318,1385.245361 1298.244019,1382.765381 
	C1298.836060,1381.322266 1300.401855,1380.278809 1301.785645,1378.803223 
z"/>
</svg>