<svg version="1.1" id="Layer_1" xmlns="http://www.w3.org/2000/svg" xmlns:xlink="http://www.w3.org/1999/xlink" x="0px" y="0px"
	 width="100%" viewBox="0 0 480 520" enable-background="new 0 0 480 520" xml:space="preserve">
<path fill="#010101" opacity="1.000000" stroke="none" 
	d="
M244.000000,521.000000 
	C162.666702,521.000000 81.833389,521.000000 1.000065,521.000000 
	C1.000043,347.666748 1.000043,174.333511 1.000022,1.000205 
	C160.999847,1.000136 320.999695,1.000136 480.999634,1.000068 
	C480.999756,174.333130 480.999756,347.666260 480.999878,520.999695 
	C402.166656,521.000000 323.333344,521.000000 244.000000,521.000000 
M112.835243,59.177837 
	C87.071228,71.906425 72.950043,92.371956 72.849197,121.352921 
	C72.615501,188.508896 72.703697,255.666306 72.798279,322.822968 
	C72.851753,360.791504 102.287964,390.207764 140.318298,390.267395 
	C207.474899,390.372650 274.631866,390.368134 341.788513,390.269470 
	C380.112488,390.213196 409.434174,360.763489 409.464905,322.427460 
	C409.518494,255.604004 409.490234,188.780472 409.425690,121.957039 
	C409.421356,117.477257 409.281494,112.909019 408.429718,108.532761 
	C402.090698,75.964241 375.035278,53.664032 341.771851,53.628891 
	C275.115143,53.558472 208.458221,53.648033 141.801514,53.565353 
	C131.992142,53.553188 122.610886,55.207298 112.835243,59.177837 
M91.787689,455.952362 
	C91.349144,453.718292 90.347893,451.423767 90.580025,449.261719 
	C91.217216,443.326843 92.753975,437.476501 93.204384,431.537354 
	C93.579475,426.591370 90.006851,424.119324 85.322159,425.863495 
	C82.944595,426.748688 80.854263,428.626221 78.898262,430.354187 
	C77.278465,431.785187 76.046127,433.654724 75.274574,434.575348 
	C74.029335,431.674591 73.525909,427.612366 71.368988,426.328888 
	C69.400597,425.157654 65.481819,426.589722 62.729874,427.662506 
	C61.076138,428.307190 59.993610,430.445984 58.686398,431.941315 
	C57.689518,433.081543 56.742981,434.265808 55.430508,435.843414 
	C54.800007,428.168335 52.088085,425.151215 46.617020,425.339172 
	C40.722931,425.541656 35.428497,430.815582 35.269817,436.642456 
	C41.907673,434.885315 43.351017,436.157532 41.754395,442.990234 
	C40.699356,447.505219 38.882450,451.837524 37.706974,456.330231 
	C36.454304,461.117981 38.106045,464.636078 41.720985,465.745789 
	C45.415646,466.879944 50.012142,464.858978 51.458271,460.758331 
	C52.539249,457.693146 52.907711,454.284271 53.058903,451.003815 
	C53.329128,445.140656 56.599445,441.085144 60.441170,437.125702 
	C60.862110,439.210785 60.943096,441.166962 60.487671,442.989105 
	C59.401814,447.333710 57.939365,451.584259 56.857983,455.929810 
	C55.584747,461.046234 57.209202,464.827179 60.841782,465.844330 
	C64.887428,466.977112 69.508804,464.462616 70.921043,459.767151 
	C71.813004,456.801483 71.992493,453.568207 72.125763,450.439362 
	C72.367668,444.760315 75.436661,440.769897 79.457169,437.074371 
	C79.846573,439.450287 79.647995,441.653687 79.417496,443.853729 
	C78.933640,448.472076 77.992836,453.094238 78.051781,457.704498 
	C78.123833,463.339508 82.287827,466.543884 87.702652,465.942474 
	C93.809868,465.264099 98.214058,460.192810 97.405807,454.885529 
	C95.819931,455.286713 94.225029,455.690186 91.787689,455.952362 
M231.037430,413.492096 
	C230.003387,415.369568 228.502884,417.132935 228.011215,419.143066 
	C224.897903,431.871643 221.848724,444.621033 219.129822,457.438141 
	C218.168182,461.971466 220.787476,465.307922 224.748734,465.942657 
	C228.953018,466.616364 232.880600,463.987915 233.832138,459.279846 
	C234.519531,455.878693 234.433975,452.325104 234.755707,448.845306 
	C235.222122,443.800812 240.672775,437.490204 245.466064,437.039215 
	C245.244171,439.554535 245.100067,441.971924 244.803925,444.370514 
	C244.295547,448.488098 243.216095,452.596680 243.239548,456.704102 
	C243.275436,462.989410 247.390411,466.534393 253.062637,465.967255 
	C258.532013,465.420349 262.662903,461.044281 263.239166,455.186737 
	C255.245544,456.635376 254.737244,456.135254 256.141968,447.510651 
	C256.916718,442.753998 258.213806,438.064697 258.719635,433.286224 
	C259.432037,426.556702 255.186005,423.393188 249.091843,426.244049 
	C246.033661,427.674713 243.455276,430.224304 240.843002,432.479919 
	C239.268295,433.839569 238.045319,435.606628 236.249710,437.666138 
	C236.617706,424.991608 241.051819,419.578796 249.564758,420.728973 
	C249.713379,420.284454 250.136673,419.678772 249.979019,419.387756 
	C248.404373,416.480621 247.415497,412.474335 244.940521,411.009033 
	C240.574631,408.424133 235.612625,409.404968 231.037430,413.492096 
M331.303101,465.988495 
	C345.021545,462.475586 354.059540,443.058380 347.955353,430.212860 
	C345.675995,425.416229 342.071167,424.014832 337.337280,426.605377 
	C334.915009,427.930969 332.851807,429.982635 330.799957,431.892639 
	C329.223694,433.359924 327.918976,435.118866 326.035309,437.271820 
	C326.797577,424.425293 331.381500,418.917175 338.939819,420.909546 
	C340.446930,415.409088 337.691071,410.852600 332.331665,409.983673 
	C325.752991,408.917084 320.174072,411.335480 318.414368,417.717651 
	C314.758514,430.976868 311.995941,444.482574 308.884613,457.891235 
	C308.774292,458.366638 308.827850,458.889435 308.858948,459.386810 
	C309.200287,464.847412 314.579712,467.803467 319.332214,465.080383 
	C320.545776,464.385071 321.576172,463.370209 321.920898,463.101685 
	C325.282013,464.240723 327.885193,465.122925 331.303101,465.988495 
M268.274933,459.962921 
	C273.497925,467.855408 277.854187,468.019104 286.490845,460.647369 
	C290.802399,465.980713 294.300415,467.163208 299.308807,464.980621 
	C304.302704,462.804321 306.244385,459.590820 305.486206,454.756744 
	C298.984222,457.196442 297.589508,456.234039 298.993347,449.291870 
	C300.269287,442.982239 302.405487,436.850342 303.993286,430.597168 
	C304.351654,429.185791 304.009155,427.596436 303.989319,426.088989 
	C302.299591,426.196991 300.436951,425.894562 298.963348,426.515472 
	C297.060181,427.317383 295.467957,428.857239 293.865784,429.991547 
	C283.896454,422.575439 274.872894,424.440155 269.283539,435.068085 
	C265.209076,442.815430 265.298218,451.011871 268.274933,459.962921 
M406.932953,450.466614 
	C404.400513,451.665466 401.977448,453.310242 399.311340,453.964294 
	C394.683960,455.099426 392.224884,453.083710 391.509460,449.550079 
	C397.191284,447.492188 402.997070,446.104767 408.039551,443.330139 
	C411.872681,441.220978 414.178864,436.889526 412.800140,432.147736 
	C411.371338,427.233795 407.260956,425.589935 402.452240,424.895844 
	C386.219574,422.552948 373.309662,437.882996 376.215149,453.764099 
	C377.713196,461.952087 384.179688,467.266479 391.960693,466.873352 
	C400.610138,466.436371 409.456482,458.864288 409.971344,451.534454 
	C410.128662,449.295166 409.470825,448.747192 406.932953,450.466614 
M102.623985,439.369385 
	C102.101036,444.102814 100.790894,448.910187 101.226944,453.553558 
	C102.016808,461.964630 109.667870,467.675842 117.639648,466.815918 
	C126.506516,465.859497 135.920837,457.815369 134.697922,449.292694 
	C131.116119,450.923157 127.693817,453.018860 123.976456,454.034149 
	C119.545792,455.244202 117.131248,453.101257 115.856377,447.808350 
	C122.114243,448.693207 127.832596,447.430054 132.868942,443.641113 
	C136.762054,440.712219 139.005447,436.894653 137.728745,431.956482 
	C136.448914,427.006256 132.245026,425.598053 127.778664,424.996552 
	C116.165489,423.432587 108.333664,428.861237 102.623985,439.369385 
M430.747589,436.145294 
	C432.645844,437.001831 434.491272,438.382874 436.455902,438.580872 
	C438.859589,438.823090 441.946198,438.847595 443.669769,437.549042 
	C445.635895,436.067780 447.352295,433.044983 447.402252,430.654999 
	C447.435669,429.056213 444.632263,426.482788 442.652008,425.922211 
	C435.623169,423.932648 428.449402,424.140564 421.783752,427.466919 
	C413.829437,431.436340 413.577881,436.831757 420.859833,441.935608 
	C421.532623,442.407166 422.201233,442.884674 422.948090,443.413422 
	C419.973297,445.699707 416.824646,447.596893 414.334473,450.139038 
	C408.633484,455.958862 410.443085,463.663452 418.027100,465.746246 
	C425.318390,467.748657 432.280487,466.495544 438.218658,461.630920 
	C443.647766,457.183289 443.698761,450.262054 438.291565,445.736603 
	C436.184967,443.973480 433.377930,443.070923 430.986816,441.617065 
	C428.803833,440.289764 426.070160,438.869141 430.747589,436.145294 
M207.456192,453.439423 
	C199.785034,455.272552 195.959106,452.986420 194.796936,445.295532 
	C194.338577,442.262482 194.468323,438.945221 195.209518,435.976898 
	C196.088928,432.455078 197.785431,428.305817 202.171143,428.710205 
	C206.311020,429.091919 206.845245,433.319672 207.481277,436.799561 
	C207.570816,437.289368 207.628357,437.788971 207.651505,438.286316 
	C207.813522,441.767334 210.070129,442.369537 212.862320,441.896545 
	C217.714539,441.074615 220.190689,436.168640 217.377457,432.160767 
	C215.657089,429.709839 213.097595,427.331055 210.381241,426.186249 
	C199.065308,421.417084 185.837234,428.683350 181.823013,441.480560 
	C178.028702,453.576721 184.290741,464.837433 195.695831,466.739288 
	C203.718292,468.077057 217.063766,460.881256 215.074066,449.146057 
	C212.739426,450.490265 210.459778,451.802856 207.456192,453.439423 
M356.236877,425.864227 
	C355.999420,427.004669 355.647858,428.134705 355.542480,429.287231 
	C354.652954,439.013489 353.265472,448.738068 353.160797,458.475311 
	C353.101196,464.018280 358.064240,466.859772 363.423004,465.868744 
	C369.209717,464.798523 372.843628,460.214966 372.084503,454.943634 
	C366.302246,456.857483 364.470581,455.910400 365.004608,449.856445 
	C365.642426,442.625214 366.819702,435.338898 368.757111,428.352051 
	C370.963165,420.396118 372.550751,419.790619 380.337524,420.721710 
	C381.028900,416.548706 379.818176,413.162689 376.197784,410.942627 
	C372.537506,408.698029 365.480011,409.331024 362.815613,412.892181 
	C360.109344,416.509308 358.559570,420.991699 356.236877,425.864227 
M161.018173,433.963989 
	C160.222595,427.956940 157.355011,425.163788 152.188416,425.363495 
	C146.373825,425.588287 141.167618,430.801056 140.885376,436.680756 
	C147.874908,434.858704 149.128418,436.066406 147.278854,443.356781 
	C146.177933,447.696198 144.447281,451.875122 143.328796,456.211060 
	C142.086731,461.026031 143.745499,464.591461 147.327576,465.732239 
	C151.012573,466.905762 155.472305,464.932800 157.102203,460.795776 
	C158.174347,458.074463 158.907120,454.964142 158.767761,452.077423 
	C158.524887,447.046295 161.113983,443.555054 163.980637,440.085968 
	C165.781998,437.906097 168.022232,437.024292 170.456924,439.182953 
	C173.329422,441.729828 175.982239,441.972443 178.617538,438.868835 
	C181.506042,435.467072 182.249313,429.937256 179.936340,427.349487 
	C177.101517,424.177948 173.706497,425.022858 170.956772,427.105011 
	C167.960403,429.373962 165.548325,432.407166 162.791412,435.011780 
	C162.537201,435.251953 161.631134,434.802124 161.018173,433.963989 
z"/>
<path fill="#EBA8BF" opacity="1.000000" stroke="none" 
	d="
M113.207703,59.076607 
	C122.610886,55.207298 131.992142,53.553188 141.801514,53.565353 
	C208.458221,53.648033 275.115143,53.558472 341.771851,53.628891 
	C375.035278,53.664032 402.090698,75.964241 408.429718,108.532761 
	C409.281494,112.909019 409.421356,117.477257 409.425690,121.957039 
	C409.490234,188.780472 409.518494,255.604004 409.464905,322.427460 
	C409.434174,360.763489 380.112488,390.213196 341.788513,390.269470 
	C274.631866,390.368134 207.474899,390.372650 140.318298,390.267395 
	C102.287964,390.207764 72.851753,360.791504 72.798279,322.822968 
	C72.703697,255.666306 72.615501,188.508896 72.849197,121.352921 
	C72.950043,92.371956 87.071228,71.906425 113.207703,59.076607 
M266.827118,167.913742 
	C266.827118,185.522491 266.827118,203.131241 266.827118,220.888290 
	C249.252945,220.888290 232.341064,220.888290 214.922501,220.888290 
	C214.922501,202.738174 214.922501,184.842026 214.922501,166.473846 
	C196.490799,166.473846 178.559494,166.473846 159.975708,166.473846 
	C159.975708,148.468201 159.975708,130.931793 159.975708,113.419144 
	C141.562897,113.419144 123.811424,113.419144 105.865280,113.419144 
	C105.865280,131.621124 105.865280,149.557358 105.865280,167.941406 
	C123.546135,167.941406 140.966766,167.941406 159.026260,167.941406 
	C159.026260,186.414124 159.026260,204.448181 159.026260,222.990265 
	C177.564377,222.990265 195.460907,222.990265 213.874817,222.990265 
	C213.874817,241.078857 213.874817,258.650146 213.874817,276.311157 
	C232.140625,276.311157 249.874329,276.311157 268.056702,276.311157 
	C268.056702,258.367065 268.056702,240.775681 268.056702,222.668518 
	C286.407715,222.668518 304.313477,222.668518 322.868347,222.668518 
	C322.868347,204.126160 322.868347,186.096283 322.868347,167.685287 
	C341.116760,167.685287 358.707275,167.685287 376.423706,167.685287 
	C376.423706,149.386505 376.423706,131.488907 376.423706,113.573929 
	C357.899353,113.573929 339.700409,113.573929 321.013275,113.573929 
	C321.013275,131.415146 321.013275,148.838867 321.013275,166.496109 
	C308.366272,166.496109 296.211792,166.439606 284.058258,166.521210 
	C278.428406,166.559006 272.800415,166.865814 266.827118,167.913742 
M376.745728,299.500153 
	C376.745728,291.556854 376.745728,283.613556 376.745728,275.498718 
	C358.002197,275.498718 339.813171,275.498718 321.571075,275.498718 
	C321.571075,294.047119 321.571075,312.252411 321.571075,330.372650 
	C340.133392,330.372650 358.320587,330.372650 376.745728,330.372650 
	C376.745728,320.125488 376.745728,310.312836 376.745728,299.500153 
M116.526054,275.168060 
	C113.070610,275.168060 109.615166,275.168060 105.903519,275.168060 
	C105.903519,293.880402 105.903519,312.081696 105.903519,330.468567 
	C124.062843,330.468567 141.925461,330.468567 159.729126,330.468567 
	C159.729126,311.917847 159.729126,293.712006 159.729126,275.167908 
	C145.417679,275.167908 131.469009,275.167908 116.526054,275.168060 
z"/>
<path fill="#E3A5BA" opacity="1.000000" stroke="none" 
	d="
M92.208908,456.023010 
	C94.225029,455.690186 95.819931,455.286713 97.405807,454.885529 
	C98.214058,460.192810 93.809868,465.264099 87.702652,465.942474 
	C82.287827,466.543884 78.123833,463.339508 78.051781,457.704498 
	C77.992836,453.094238 78.933640,448.472076 79.417496,443.853729 
	C79.647995,441.653687 79.846573,439.450287 79.457169,437.074371 
	C75.436661,440.769897 72.367668,444.760315 72.125763,450.439362 
	C71.992493,453.568207 71.813004,456.801483 70.921043,459.767151 
	C69.508804,464.462616 64.887428,466.977112 60.841782,465.844330 
	C57.209202,464.827179 55.584747,461.046234 56.857983,455.929810 
	C57.939365,451.584259 59.401814,447.333710 60.487671,442.989105 
	C60.943096,441.166962 60.862110,439.210785 60.441170,437.125702 
	C56.599445,441.085144 53.329128,445.140656 53.058903,451.003815 
	C52.907711,454.284271 52.539249,457.693146 51.458271,460.758331 
	C50.012142,464.858978 45.415646,466.879944 41.720985,465.745789 
	C38.106045,464.636078 36.454304,461.117981 37.706974,456.330231 
	C38.882450,451.837524 40.699356,447.505219 41.754395,442.990234 
	C43.351017,436.157532 41.907673,434.885315 35.269817,436.642456 
	C35.428497,430.815582 40.722931,425.541656 46.617020,425.339172 
	C52.088085,425.151215 54.800007,428.168335 55.430508,435.843414 
	C56.742981,434.265808 57.689518,433.081543 58.686398,431.941315 
	C59.993610,430.445984 61.076138,428.307190 62.729874,427.662506 
	C65.481819,426.589722 69.400597,425.157654 71.368988,426.328888 
	C73.525909,427.612366 74.029335,431.674591 75.274574,434.575348 
	C76.046127,433.654724 77.278465,431.785187 78.898262,430.354187 
	C80.854263,428.626221 82.944595,426.748688 85.322159,425.863495 
	C90.006851,424.119324 93.579475,426.591370 93.204384,431.537354 
	C92.753975,437.476501 91.217216,443.326843 90.580025,449.261719 
	C90.347893,451.423767 91.349144,453.718292 92.208908,456.023010 
z"/>
<path fill="#E2A5B9" opacity="1.000000" stroke="none" 
	d="
M231.299500,413.224609 
	C235.612625,409.404968 240.574631,408.424133 244.940521,411.009033 
	C247.415497,412.474335 248.404373,416.480621 249.979019,419.387756 
	C250.136673,419.678772 249.713379,420.284454 249.564758,420.728973 
	C241.051819,419.578796 236.617706,424.991608 236.249710,437.666138 
	C238.045319,435.606628 239.268295,433.839569 240.843002,432.479919 
	C243.455276,430.224304 246.033661,427.674713 249.091843,426.244049 
	C255.186005,423.393188 259.432037,426.556702 258.719635,433.286224 
	C258.213806,438.064697 256.916718,442.753998 256.141968,447.510651 
	C254.737244,456.135254 255.245544,456.635376 263.239166,455.186737 
	C262.662903,461.044281 258.532013,465.420349 253.062637,465.967255 
	C247.390411,466.534393 243.275436,462.989410 243.239548,456.704102 
	C243.216095,452.596680 244.295547,448.488098 244.803925,444.370514 
	C245.100067,441.971924 245.244171,439.554535 245.466064,437.039215 
	C240.672775,437.490204 235.222122,443.800812 234.755707,448.845306 
	C234.433975,452.325104 234.519531,455.878693 233.832138,459.279846 
	C232.880600,463.987915 228.953018,466.616364 224.748734,465.942657 
	C220.787476,465.307922 218.168182,461.971466 219.129822,457.438141 
	C221.848724,444.621033 224.897903,431.871643 228.011215,419.143066 
	C228.502884,417.132935 230.003387,415.369568 231.299500,413.224609 
z"/>
<path fill="#E3A5BA" opacity="1.000000" stroke="none" 
	d="
M330.895752,465.996796 
	C327.885193,465.122925 325.282013,464.240723 321.920898,463.101685 
	C321.576172,463.370209 320.545776,464.385071 319.332214,465.080383 
	C314.579712,467.803467 309.200287,464.847412 308.858948,459.386810 
	C308.827850,458.889435 308.774292,458.366638 308.884613,457.891235 
	C311.995941,444.482574 314.758514,430.976868 318.414368,417.717651 
	C320.174072,411.335480 325.752991,408.917084 332.331665,409.983673 
	C337.691071,410.852600 340.446930,415.409088 338.939819,420.909546 
	C331.381500,418.917175 326.797577,424.425293 326.035309,437.271820 
	C327.918976,435.118866 329.223694,433.359924 330.799957,431.892639 
	C332.851807,429.982635 334.915009,427.930969 337.337280,426.605377 
	C342.071167,424.014832 345.675995,425.416229 347.955353,430.212860 
	C354.059540,443.058380 345.021545,462.475586 330.895752,465.996796 
M331.437744,437.747009 
	C326.783295,441.912506 323.453125,446.740570 324.252960,453.354706 
	C324.480896,455.239532 325.346985,457.047180 325.920441,458.890228 
	C328.058258,457.946960 330.795166,457.542023 332.219177,455.957336 
	C336.154022,451.578430 337.415680,446.076294 337.210205,440.205566 
	C337.071381,436.239502 335.634094,434.883057 331.437744,437.747009 
z"/>
<path fill="#E2A5BA" opacity="1.000000" stroke="none" 
	d="
M268.126953,459.600494 
	C265.298218,451.011871 265.209076,442.815430 269.283539,435.068085 
	C274.872894,424.440155 283.896454,422.575439 293.865784,429.991547 
	C295.467957,428.857239 297.060181,427.317383 298.963348,426.515472 
	C300.436951,425.894562 302.299591,426.196991 303.989319,426.088989 
	C304.009155,427.596436 304.351654,429.185791 303.993286,430.597168 
	C302.405487,436.850342 300.269287,442.982239 298.993347,449.291870 
	C297.589508,456.234039 298.984222,457.196442 305.486206,454.756744 
	C306.244385,459.590820 304.302704,462.804321 299.308807,464.980621 
	C294.300415,467.163208 290.802399,465.980713 286.490845,460.647369 
	C277.854187,468.019104 273.497925,467.855408 268.126953,459.600494 
M288.720154,445.114227 
	C289.426514,442.210632 290.499817,439.329681 290.681122,436.393677 
	C290.768890,434.972229 288.860046,432.089630 288.408630,432.196899 
	C286.055298,432.756287 282.927643,433.462860 281.817047,435.221710 
	C278.146973,441.034119 277.369690,447.657501 278.999298,454.379730 
	C279.291412,455.584808 280.609467,457.329376 281.545898,457.389496 
	C282.701691,457.463593 284.522064,456.310394 285.054535,455.205353 
	C286.482422,452.242004 287.376770,449.021606 288.720154,445.114227 
z"/>
<path fill="#E1A5B9" opacity="1.000000" stroke="none" 
	d="
M407.245056,450.254669 
	C409.470825,448.747192 410.128662,449.295166 409.971344,451.534454 
	C409.456482,458.864288 400.610138,466.436371 391.960693,466.873352 
	C384.179688,467.266479 377.713196,461.952087 376.215149,453.764099 
	C373.309662,437.882996 386.219574,422.552948 402.452240,424.895844 
	C407.260956,425.589935 411.371338,427.233795 412.800140,432.147736 
	C414.178864,436.889526 411.872681,441.220978 408.039551,443.330139 
	C402.997070,446.104767 397.191284,447.492188 391.509460,449.550079 
	C392.224884,453.083710 394.683960,455.099426 399.311340,453.964294 
	C401.977448,453.310242 404.400513,451.665466 407.245056,450.254669 
M391.207703,433.960724 
	C390.539886,437.036957 389.872070,440.113220 389.204254,443.189453 
	C389.805725,443.612793 390.407196,444.036133 391.008667,444.459473 
	C393.532104,442.668396 396.421753,441.221436 398.498901,439.010956 
	C402.236664,435.033356 402.979706,430.243195 400.382690,429.046722 
	C396.047546,427.049377 393.728333,430.234528 391.207703,433.960724 
z"/>
<path fill="#E2A5B9" opacity="1.000000" stroke="none" 
	d="
M102.775055,439.009583 
	C108.333664,428.861237 116.165489,423.432587 127.778664,424.996552 
	C132.245026,425.598053 136.448914,427.006256 137.728745,431.956482 
	C139.005447,436.894653 136.762054,440.712219 132.868942,443.641113 
	C127.832596,447.430054 122.114243,448.693207 115.856377,447.808350 
	C117.131248,453.101257 119.545792,455.244202 123.976456,454.034149 
	C127.693817,453.018860 131.116119,450.923157 134.697922,449.292694 
	C135.920837,457.815369 126.506516,465.859497 117.639648,466.815918 
	C109.667870,467.675842 102.016808,461.964630 101.226944,453.553558 
	C100.790894,448.910187 102.101036,444.102814 102.775055,439.009583 
M115.006439,436.653473 
	C114.761810,438.857239 114.517181,441.061005 114.261551,443.363770 
	C120.966820,443.099609 126.076263,438.389557 126.605110,432.629883 
	C126.906464,429.347870 124.499619,427.179321 121.710426,428.906799 
	C119.098396,430.524597 117.343819,433.526825 115.006439,436.653473 
z"/>
<path fill="#E3A6BB" opacity="1.000000" stroke="none" 
	d="
M430.384735,436.241058 
	C426.070160,438.869141 428.803833,440.289764 430.986816,441.617065 
	C433.377930,443.070923 436.184967,443.973480 438.291565,445.736603 
	C443.698761,450.262054 443.647766,457.183289 438.218658,461.630920 
	C432.280487,466.495544 425.318390,467.748657 418.027100,465.746246 
	C410.443085,463.663452 408.633484,455.958862 414.334473,450.139038 
	C416.824646,447.596893 419.973297,445.699707 422.948090,443.413422 
	C422.201233,442.884674 421.532623,442.407166 420.859833,441.935608 
	C413.577881,436.831757 413.829437,431.436340 421.783752,427.466919 
	C428.449402,424.140564 435.623169,423.932648 442.652008,425.922211 
	C444.632263,426.482788 447.435669,429.056213 447.402252,430.654999 
	C447.352295,433.044983 445.635895,436.067780 443.669769,437.549042 
	C441.946198,438.847595 438.859589,438.823090 436.455902,438.580872 
	C434.491272,438.382874 432.645844,437.001831 430.384735,436.241058 
M423.996582,448.533844 
	C423.411316,449.916870 422.826050,451.299896 422.240753,452.682922 
	C423.751556,452.944092 425.279541,453.476654 426.767792,453.382202 
	C428.002777,453.303802 429.472321,452.768799 430.322113,451.919800 
	C431.204620,451.038147 432.240601,448.990204 431.838379,448.420715 
	C431.032837,447.280151 429.339325,446.344940 427.921967,446.198090 
	C426.877350,446.089813 425.689148,447.367432 423.996582,448.533844 
z"/>
<path fill="#E2A5B9" opacity="1.000000" stroke="none" 
	d="
M207.818161,453.277405 
	C210.459778,451.802856 212.739426,450.490265 215.074066,449.146057 
	C217.063766,460.881256 203.718292,468.077057 195.695831,466.739288 
	C184.290741,464.837433 178.028702,453.576721 181.823013,441.480560 
	C185.837234,428.683350 199.065308,421.417084 210.381241,426.186249 
	C213.097595,427.331055 215.657089,429.709839 217.377457,432.160767 
	C220.190689,436.168640 217.714539,441.074615 212.862320,441.896545 
	C210.070129,442.369537 207.813522,441.767334 207.651505,438.286316 
	C207.628357,437.788971 207.570816,437.289368 207.481277,436.799561 
	C206.845245,433.319672 206.311020,429.091919 202.171143,428.710205 
	C197.785431,428.305817 196.088928,432.455078 195.209518,435.976898 
	C194.468323,438.945221 194.338577,442.262482 194.796936,445.295532 
	C195.959106,452.986420 199.785034,455.272552 207.818161,453.277405 
z"/>
<path fill="#E3A5BA" opacity="1.000000" stroke="none" 
	d="
M356.370087,425.479675 
	C358.559570,420.991699 360.109344,416.509308 362.815613,412.892181 
	C365.480011,409.331024 372.537506,408.698029 376.197784,410.942627 
	C379.818176,413.162689 381.028900,416.548706 380.337524,420.721710 
	C372.550751,419.790619 370.963165,420.396118 368.757111,428.352051 
	C366.819702,435.338898 365.642426,442.625214 365.004608,449.856445 
	C364.470581,455.910400 366.302246,456.857483 372.084503,454.943634 
	C372.843628,460.214966 369.209717,464.798523 363.423004,465.868744 
	C358.064240,466.859772 353.101196,464.018280 353.160797,458.475311 
	C353.265472,448.738068 354.652954,439.013489 355.542480,429.287231 
	C355.647858,428.134705 355.999420,427.004669 356.370087,425.479675 
z"/>
<path fill="#E3A5BA" opacity="1.000000" stroke="none" 
	d="
M161.022949,434.318329 
	C161.631134,434.802124 162.537201,435.251953 162.791412,435.011780 
	C165.548325,432.407166 167.960403,429.373962 170.956772,427.105011 
	C173.706497,425.022858 177.101517,424.177948 179.936340,427.349487 
	C182.249313,429.937256 181.506042,435.467072 178.617538,438.868835 
	C175.982239,441.972443 173.329422,441.729828 170.456924,439.182953 
	C168.022232,437.024292 165.781998,437.906097 163.980637,440.085968 
	C161.113983,443.555054 158.524887,447.046295 158.767761,452.077423 
	C158.907120,454.964142 158.174347,458.074463 157.102203,460.795776 
	C155.472305,464.932800 151.012573,466.905762 147.327576,465.732239 
	C143.745499,464.591461 142.086731,461.026031 143.328796,456.211060 
	C144.447281,451.875122 146.177933,447.696198 147.278854,443.356781 
	C149.128418,436.066406 147.874908,434.858704 140.885376,436.680756 
	C141.167618,430.801056 146.373825,425.588287 152.188416,425.363495 
	C157.355011,425.163788 160.222595,427.956940 161.022949,434.318329 
z"/>
<path fill="#040202" opacity="1.000000" stroke="none" 
	d="
M266.999329,167.482208 
	C272.800415,166.865814 278.428406,166.559006 284.058258,166.521210 
	C296.211792,166.439606 308.366272,166.496109 321.013275,166.496109 
	C321.013275,148.838867 321.013275,131.415146 321.013275,113.573929 
	C339.700409,113.573929 357.899353,113.573929 376.423706,113.573929 
	C376.423706,131.488907 376.423706,149.386505 376.423706,167.685287 
	C358.707275,167.685287 341.116760,167.685287 322.868347,167.685287 
	C322.868347,186.096283 322.868347,204.126160 322.868347,222.668518 
	C304.313477,222.668518 286.407715,222.668518 268.056702,222.668518 
	C268.056702,240.775681 268.056702,258.367065 268.056702,276.311157 
	C249.874329,276.311157 232.140625,276.311157 213.874817,276.311157 
	C213.874817,258.650146 213.874817,241.078857 213.874817,222.990265 
	C195.460907,222.990265 177.564377,222.990265 159.026260,222.990265 
	C159.026260,204.448181 159.026260,186.414124 159.026260,167.941406 
	C140.966766,167.941406 123.546135,167.941406 105.865280,167.941406 
	C105.865280,149.557358 105.865280,131.621124 105.865280,113.419144 
	C123.811424,113.419144 141.562897,113.419144 159.975708,113.419144 
	C159.975708,130.931793 159.975708,148.468201 159.975708,166.473846 
	C178.559494,166.473846 196.490799,166.473846 214.922501,166.473846 
	C214.922501,184.842026 214.922501,202.738174 214.922501,220.888290 
	C232.341064,220.888290 249.252945,220.888290 266.827118,220.888290 
	C266.827118,203.131241 266.827118,185.522491 266.999329,167.482208 
z"/>
<path fill="#060404" opacity="1.000000" stroke="none" 
	d="
M376.745728,300.000183 
	C376.745728,310.312836 376.745728,320.125488 376.745728,330.372650 
	C358.320587,330.372650 340.133392,330.372650 321.571075,330.372650 
	C321.571075,312.252411 321.571075,294.047119 321.571075,275.498718 
	C339.813171,275.498718 358.002197,275.498718 376.745728,275.498718 
	C376.745728,283.613556 376.745728,291.556854 376.745728,300.000183 
z"/>
<path fill="#040202" opacity="1.000000" stroke="none" 
	d="
M117.023193,275.167969 
	C131.469009,275.167908 145.417679,275.167908 159.729126,275.167908 
	C159.729126,293.712006 159.729126,311.917847 159.729126,330.468567 
	C141.925461,330.468567 124.062843,330.468567 105.903519,330.468567 
	C105.903519,312.081696 105.903519,293.880402 105.903519,275.168060 
	C109.615166,275.168060 113.070610,275.168060 117.023193,275.167969 
z"/>
<path fill="#0C0506" opacity="1.000000" stroke="none" 
	d="
M331.714355,437.491211 
	C335.634094,434.883057 337.071381,436.239502 337.210205,440.205566 
	C337.415680,446.076294 336.154022,451.578430 332.219177,455.957336 
	C330.795166,457.542023 328.058258,457.946960 325.920441,458.890228 
	C325.346985,457.047180 324.480896,455.239532 324.252960,453.354706 
	C323.453125,446.740570 326.783295,441.912506 331.714355,437.491211 
z"/>
<path fill="#0D0608" opacity="1.000000" stroke="none" 
	d="
M288.601593,445.508759 
	C287.376770,449.021606 286.482422,452.242004 285.054535,455.205353 
	C284.522064,456.310394 282.701691,457.463593 281.545898,457.389496 
	C280.609467,457.329376 279.291412,455.584808 278.999298,454.379730 
	C277.369690,447.657501 278.146973,441.034119 281.817047,435.221710 
	C282.927643,433.462860 286.055298,432.756287 288.408630,432.196899 
	C288.860046,432.089630 290.768890,434.972229 290.681122,436.393677 
	C290.499817,439.329681 289.426514,442.210632 288.601593,445.508759 
z"/>
<path fill="#12080A" opacity="1.000000" stroke="none" 
	d="
M391.391937,433.633026 
	C393.728333,430.234528 396.047546,427.049377 400.382690,429.046722 
	C402.979706,430.243195 402.236664,435.033356 398.498901,439.010956 
	C396.421753,441.221436 393.532104,442.668396 391.008667,444.459473 
	C390.407196,444.036133 389.805725,443.612793 389.204254,443.189453 
	C389.872070,440.113220 390.539886,437.036957 391.391937,433.633026 
z"/>
<path fill="#11070A" opacity="1.000000" stroke="none" 
	d="
M115.109169,436.286621 
	C117.343819,433.526825 119.098396,430.524597 121.710426,428.906799 
	C124.499619,427.179321 126.906464,429.347870 126.605110,432.629883 
	C126.076263,438.389557 120.966820,443.099609 114.261551,443.363770 
	C114.517181,441.061005 114.761810,438.857239 115.109169,436.286621 
z"/>
<path fill="#1B0C10" opacity="1.000000" stroke="none" 
	d="
M424.280762,448.280670 
	C425.689148,447.367432 426.877350,446.089813 427.921967,446.198090 
	C429.339325,446.344940 431.032837,447.280151 431.838379,448.420715 
	C432.240601,448.990204 431.204620,451.038147 430.322113,451.919800 
	C429.472321,452.768799 428.002777,453.303802 426.767792,453.382202 
	C425.279541,453.476654 423.751556,452.944092 422.240784,452.682922 
	C422.826050,451.299896 423.411316,449.916870 424.280762,448.280670 
z"/>
</svg>